<?xml version="1.0" standalone="no"?>
<!DOCTYPE svg PUBLIC "-//W3C//DTD SVG 20010904//EN"
 "http://www.w3.org/TR/2001/REC-SVG-20010904/DTD/svg10.dtd">
<svg version="1.0" xmlns="http://www.w3.org/2000/svg"
 width="260.000000pt" height="260.000000pt" viewBox="0 0 260.000000 260.000000"
 preserveAspectRatio="xMidYMid meet">
<metadata>
Created by potrace 1.14, written by Peter Selinger 2001-2017
</metadata>
<g transform="translate(0.000000,260.000000) scale(0.100000,-0.100000)"
fill="#000000" stroke="none">
<path d="M241 2584 c-93 -33 -173 -105 -214 -192 l-22 -47 0 -1045 0 -1045 29
-58 c35 -68 108 -140 174 -170 l47 -22 1045 0 1045 0 58 29 c68 35 140 108
170 174 l22 47 0 1045 0 1045 -29 58 c-35 68 -107 139 -173 170 l-48 22 -1030
2 c-910 2 -1035 0 -1074 -13z m433 -490 c14 -14 16 -99 16 -789 0 -690 -2
-775 -16 -789 -18 -18 -66 -21 -95 -6 -19 10 -19 30 -19 793 0 596 3 786 12
795 17 17 84 15 102 -4z m747 -5 c28 -15 42 -55 27 -82 -6 -12 -112 -170 -236
-351 -124 -181 -227 -337 -229 -345 -2 -9 102 -173 236 -370 138 -203 241
-364 241 -377 0 -28 -51 -67 -82 -62 -29 4 -547 760 -548 799 0 18 79 142 250
395 138 203 260 377 272 387 23 20 41 21 69 6z m404 -365 c105 -27 215 -105
215 -152 0 -32 -26 -62 -55 -62 -13 0 -45 18 -71 40 -121 100 -298 92 -408
-18 -56 -55 -78 -106 -84 -188 -6 -93 15 -158 73 -222 109 -122 298 -133 422
-27 45 38 77 44 105 18 45 -40 -3 -107 -117 -163 -120 -59 -252 -59 -372 0
-224 111 -300 387 -163 600 96 149 280 220 455 174z m-22 -230 c42 -22 67 -44
67 -61 0 -24 -28 -25 -61 -3 -120 86 -269 -31 -210 -165 35 -80 138 -107 205
-54 30 23 59 22 64 -3 2 -11 -12 -27 -39 -45 -60 -40 -147 -40 -208 0 -102 68
-119 192 -38 284 18 20 45 42 62 49 42 18 120 17 158 -2z"/>
</g>
</svg>
