<svg width="1850" height="410" viewBox="0 0 1850 410" fill="none" xmlns="http://www.w3.org/2000/svg">
<rect x="25" width="375" height="375" rx="55" fill="#6F161F"/>
<rect x="25" width="375" height="375" rx="55" fill="url(#paint0_linear)"/>
<path d="M114.095 65.625H107.327C103.589 65.625 100.559 68.6383 100.559 72.3555V301.192C100.559 304.909 103.589 307.923 107.327 307.923H114.095C117.833 307.923 120.863 304.909 120.863 301.192V72.3555C120.863 68.6383 117.833 65.625 114.095 65.625Z" fill="white"/>
<path d="M164.764 188.95C164.386 188.394 164.183 187.737 164.183 187.065C164.183 186.394 164.386 185.737 164.764 185.181L234.433 82.7541C235.936 80.5341 236.493 77.8128 235.984 75.1853C235.474 72.5578 233.939 70.2377 231.715 68.7322C229.483 67.2382 226.746 66.684 224.104 67.1905C221.462 67.6971 219.129 69.2234 217.615 71.4357L143.169 180.862C143.078 180.997 140.095 185.231 141.415 189.786C141.669 190.562 141.996 191.313 142.39 192.029C142.49 192.223 142.601 192.41 142.723 192.59L219.51 305.477C220.516 306.956 222.07 307.976 223.832 308.315C225.594 308.654 227.419 308.283 228.906 307.283L234.512 303.514C235.999 302.514 237.025 300.968 237.366 299.216C237.706 297.464 237.333 295.649 236.328 294.17L164.764 188.95Z" fill="white"/>
<path d="M319.567 213.443C317.747 212.427 315.625 212.081 313.574 212.468C311.523 212.855 309.675 213.949 308.355 215.558C302.155 221.969 294.19 226.417 285.457 228.343C276.725 230.269 267.615 229.587 259.271 226.383C250.927 223.179 243.72 217.595 238.555 210.333C233.39 203.071 230.497 194.454 230.239 185.562C229.98 176.671 232.368 167.902 237.103 160.355C241.838 152.809 248.708 146.821 256.852 143.143C264.996 139.465 274.051 138.261 282.881 139.682C291.71 141.103 299.921 145.086 306.483 151.13C307.12 151.719 307.752 152.319 308.355 152.948L308.919 153.508C310.633 155.206 312.953 156.159 315.371 156.159C317.79 156.159 320.11 155.206 321.823 153.508C323.316 152.033 324.233 150.077 324.409 147.992C324.586 145.906 324.011 143.826 322.788 142.123L322.703 142.016C322.562 141.825 322.421 141.635 322.263 141.455C322.172 141.332 322.074 141.214 321.97 141.102C315.988 134.737 308.741 129.678 300.69 126.244C292.639 122.809 283.959 121.075 275.198 121.152C240.857 121.404 212.709 149.195 212.229 183.353C212.047 196.146 215.781 208.691 222.934 219.326C230.087 229.96 240.321 238.181 252.281 242.898C264.24 247.614 277.358 248.604 289.896 245.736C302.434 242.868 313.799 236.277 322.483 226.837C322.588 226.714 322.686 226.584 322.777 226.45L323.137 225.856C324.307 223.736 324.588 221.242 323.918 218.918C323.249 216.593 321.683 214.626 319.562 213.443H319.567Z" fill="white"/>
<path d="M276.197 163.582C281.428 163.579 286.466 165.547 290.296 169.089C290.59 169.359 290.86 169.65 291.154 169.92L291.402 170.166C292.186 170.943 293.248 171.379 294.354 171.379C295.461 171.379 296.523 170.943 297.307 170.166C297.99 169.491 298.409 168.596 298.489 167.641C298.57 166.687 298.307 165.735 297.747 164.956L297.707 164.911C297.645 164.821 297.578 164.737 297.504 164.653C297.462 164.596 297.417 164.542 297.369 164.49C293.373 160.256 288.187 157.318 282.487 156.059C276.786 154.8 270.837 155.279 265.415 157.433C259.992 159.587 255.349 163.317 252.09 168.135C248.83 172.953 247.107 178.636 247.145 184.443C247.182 190.249 248.979 195.91 252.3 200.686C255.621 205.462 260.313 209.132 265.762 211.217C271.212 213.301 277.167 213.704 282.851 212.372C288.534 211.041 293.682 208.036 297.623 203.752C297.671 203.694 297.716 203.634 297.758 203.572L297.922 203.303C298.456 202.332 298.584 201.191 298.278 200.128C297.972 199.064 297.256 198.163 296.286 197.621C295.452 197.157 294.481 196.999 293.542 197.177C292.603 197.354 291.758 197.855 291.154 198.591C288.772 201.05 285.814 202.884 282.545 203.928C279.276 204.972 275.797 205.195 272.421 204.575C269.044 203.956 265.875 202.514 263.196 200.378C260.517 198.243 258.412 195.48 257.069 192.337C255.726 189.195 255.187 185.771 255.5 182.37C255.813 178.97 256.969 175.7 258.864 172.852C260.759 170.005 263.334 167.669 266.358 166.053C269.383 164.437 272.763 163.592 276.197 163.593V163.582Z" fill="white"/>
<path d="M502.05 360H508.663V317.68L551.385 360H560.24L517.173 316.99L556.79 277.2H548.05L508.663 316.53V277.2H502.05V360ZM606.979 361.725C615.22 361.725 622.12 359.904 627.679 356.262C633.275 352.582 637.492 347.503 640.329 341.025C643.165 334.508 644.584 327.033 644.584 318.6C644.584 310.128 643.165 302.653 640.329 296.175C637.492 289.697 633.275 284.637 627.679 280.995C622.12 277.315 615.22 275.475 606.979 275.475C598.737 275.475 591.818 277.315 586.221 280.995C580.624 284.637 576.408 289.697 573.571 296.175C570.734 302.653 569.316 310.128 569.316 318.6C569.316 327.033 570.734 334.508 573.571 341.025C576.408 347.503 580.624 352.582 586.221 356.262C591.818 359.904 598.737 361.725 606.979 361.725ZM606.979 355.227C600.194 355.227 594.52 353.675 589.959 350.57C585.397 347.465 581.985 343.152 579.724 337.632C577.462 332.112 576.35 325.768 576.389 318.6C576.465 311.393 577.634 305.049 579.896 299.568C582.158 294.047 585.531 289.735 590.016 286.63C594.539 283.487 600.194 281.934 606.979 281.972C613.764 281.972 619.418 283.525 623.941 286.63C628.464 289.735 631.857 294.047 634.119 299.568C636.38 305.049 637.511 311.393 637.511 318.6C637.511 325.768 636.38 332.112 634.119 337.632C631.857 343.152 628.464 347.465 623.941 350.57C619.418 353.675 613.764 355.227 606.979 355.227ZM657.327 360C661.045 360.997 664.074 361.073 666.412 360.23C668.75 359.425 670.59 357.93 671.932 355.745C673.312 353.522 674.385 350.857 675.152 347.752C675.919 344.609 676.57 341.255 677.107 337.69C678.104 330.943 678.87 324.599 679.407 318.657C679.982 312.677 680.442 306.832 680.787 301.12C681.17 295.37 681.554 289.543 681.937 283.64H719.887V360H726.499V277.2H675.324C674.979 285.058 674.596 292.188 674.174 298.59C673.791 304.953 673.293 310.991 672.679 316.702C672.066 322.414 671.299 328.222 670.379 334.125C669.498 340.143 668.616 344.609 667.734 347.522C666.891 350.436 665.684 352.295 664.112 353.1C662.54 353.867 660.279 354.097 657.327 353.79V360ZM751.789 360H758.401V283.64H807.334V360H813.946V277.2H751.789V360ZM833.515 360H840.53L847.89 339.185H885.955L893.373 360H900.388L871.063 277.2H862.84L833.515 360ZM850.075 332.917L866.865 285.365L883.77 332.917H850.075ZM919.891 360H1008.56V369.948H1015.17V353.675H1006.54V277.2H999.873V353.56H966.523V277.2H959.911V353.56H926.503V277.2H919.891V360ZM1094.83 360H1088.16V288.872L1040.2 360H1033.53V277.2H1040.2V348.212L1088.16 277.2H1094.83V360ZM1120.11 360H1126.72V317.68L1169.45 360H1178.3L1135.23 316.99L1174.85 277.2H1166.11L1126.72 316.53V277.2H1120.11V360ZM1225.04 361.725C1233.28 361.725 1240.18 359.904 1245.74 356.262C1251.34 352.582 1255.55 347.503 1258.39 341.025C1261.23 334.508 1262.65 327.033 1262.65 318.6C1262.65 310.128 1261.23 302.653 1258.39 296.175C1255.55 289.697 1251.34 284.637 1245.74 280.995C1240.18 277.315 1233.28 275.475 1225.04 275.475C1216.8 275.475 1209.88 277.315 1204.28 280.995C1198.69 284.637 1194.47 289.697 1191.63 296.175C1188.8 302.653 1187.38 310.128 1187.38 318.6C1187.38 327.033 1188.8 334.508 1191.63 341.025C1194.47 347.503 1198.69 352.582 1204.28 356.262C1209.88 359.904 1216.8 361.725 1225.04 361.725ZM1225.04 355.227C1218.26 355.227 1212.58 353.675 1208.02 350.57C1203.46 347.465 1200.05 343.152 1197.79 337.632C1195.52 332.112 1194.41 325.768 1194.45 318.6C1194.53 311.393 1195.7 305.049 1197.96 299.568C1200.22 294.047 1203.59 289.735 1208.08 286.63C1212.6 283.487 1218.26 281.934 1225.04 281.972C1231.83 281.972 1237.48 283.525 1242 286.63C1246.53 289.735 1249.92 294.047 1252.18 299.568C1254.44 305.049 1255.57 311.393 1255.57 318.6C1255.57 325.768 1254.44 332.112 1252.18 337.632C1249.92 343.152 1246.53 347.465 1242 350.57C1237.48 353.675 1231.83 355.227 1225.04 355.227ZM1283.39 360H1317.48C1322.16 360 1326.32 359.099 1329.96 357.297C1333.64 355.457 1336.53 352.851 1338.64 349.477C1340.75 346.066 1341.81 341.983 1341.81 337.23C1341.81 332.208 1340.52 327.896 1337.95 324.292C1335.42 320.689 1331.95 317.91 1327.55 315.955C1330.65 314.192 1333.12 311.719 1334.96 308.537C1336.8 305.317 1337.72 301.81 1337.72 298.015C1337.72 294.067 1336.73 290.521 1334.73 287.377C1332.78 284.234 1330.09 281.762 1326.68 279.96C1323.27 278.12 1319.4 277.2 1315.07 277.2H1283.39V360ZM1290.06 313.252V283.582H1315.01C1319.5 283.582 1323.23 284.886 1326.22 287.492C1329.25 290.099 1330.77 293.53 1330.77 297.785C1330.77 300.775 1330.06 303.439 1328.64 305.777C1327.22 308.077 1325.32 309.898 1322.95 311.24C1320.57 312.582 1317.92 313.252 1315.01 313.252H1290.06ZM1290.06 353.502V319.635H1317.2C1320.49 319.635 1323.46 320.44 1326.11 322.05C1328.75 323.622 1330.84 325.768 1332.38 328.49C1333.95 331.173 1334.73 334.182 1334.73 337.517C1334.73 342.577 1332.87 346.507 1329.16 349.305C1325.44 352.103 1320.82 353.502 1315.3 353.502H1290.06ZM1427.72 361.725C1437.35 361.725 1445.15 359.233 1451.13 354.25C1457.14 349.228 1461.23 342.558 1463.37 334.24L1456.53 332.572C1454.77 339.511 1451.47 345.031 1446.64 349.132C1441.81 353.196 1435.51 355.227 1427.72 355.227C1420.94 355.227 1415.27 353.675 1410.7 350.57C1406.14 347.465 1402.71 343.152 1400.41 337.632C1398.15 332.112 1397.06 325.768 1397.13 318.6C1397.21 311.393 1398.38 305.049 1400.64 299.568C1402.9 294.047 1406.28 289.735 1410.76 286.63C1415.28 283.525 1420.94 281.972 1427.72 281.972C1435.51 281.972 1441.81 284.023 1446.64 288.125C1451.47 292.188 1454.77 297.689 1456.53 304.627L1463.37 302.96C1461.23 294.603 1457.14 287.933 1451.13 282.95C1445.15 277.967 1437.35 275.475 1427.72 275.475C1419.48 275.475 1412.56 277.315 1406.97 280.995C1401.37 284.637 1397.15 289.697 1394.32 296.175C1391.48 302.653 1390.06 310.128 1390.06 318.6C1390.06 327.033 1391.48 334.508 1394.32 341.025C1397.15 347.503 1401.37 352.582 1406.97 356.262C1412.56 359.904 1419.48 361.725 1427.72 361.725ZM1485.17 360H1536.34V353.56H1491.78V321.532H1529.44V315.092H1491.78V283.64H1536.34V277.2H1485.17V360ZM1559.39 360H1566.01V327.742H1590.62C1591.42 327.742 1592.28 327.704 1593.2 327.627C1594.12 327.551 1595.12 327.436 1596.19 327.282C1602.4 326.286 1607.25 323.487 1610.74 318.887C1614.27 314.287 1616.03 308.806 1616.03 302.442C1616.03 298.226 1615.23 294.373 1613.62 290.885C1612.04 287.358 1609.78 284.426 1606.83 282.087C1603.88 279.749 1600.33 278.273 1596.19 277.66C1595.12 277.468 1594.12 277.353 1593.2 277.315C1592.28 277.238 1591.42 277.2 1590.62 277.2H1559.39V360ZM1566.01 321.245V283.64H1590.5C1591.15 283.64 1591.94 283.678 1592.86 283.755C1593.78 283.832 1594.7 283.966 1595.62 284.157C1600.1 285.039 1603.46 287.243 1605.68 290.77C1607.94 294.297 1609.07 298.187 1609.07 302.442C1609.07 306.697 1607.94 310.588 1605.68 314.115C1603.46 317.642 1600.1 319.865 1595.62 320.785C1594.7 320.938 1593.78 321.053 1592.86 321.13C1591.94 321.207 1591.15 321.245 1590.5 321.245H1566.01ZM1636.76 360H1643.38V283.64H1687.94V277.2H1636.76V360ZM1706.38 360H1757.56V353.56H1713V321.532H1750.66V315.092H1713V283.64H1757.56V277.2H1706.38V360ZM1812.17 269.725C1814.74 269.725 1817.08 269.092 1819.19 267.827C1821.3 266.562 1822.98 264.876 1824.25 262.767C1825.51 260.659 1826.15 258.321 1826.15 255.752H1820.4C1820.4 257.976 1819.59 259.912 1817.98 261.56C1816.41 263.17 1814.47 263.975 1812.17 263.975C1809.95 263.975 1808.02 263.17 1806.37 261.56C1804.76 259.912 1803.95 257.976 1803.95 255.752H1798.2C1798.2 258.321 1798.83 260.659 1800.1 262.767C1801.36 264.876 1803.05 266.562 1805.16 267.827C1807.27 269.092 1809.61 269.725 1812.17 269.725ZM1780.61 360H1787.28L1835.23 288.872V360H1841.9V277.2H1835.23L1787.28 348.212V277.2H1780.61V360Z" fill="#1A1A1A"/>
<path d="M586.966 217C597.525 217 607.748 215.656 617.635 212.968C627.618 210.28 636.545 206.248 644.416 200.872C652.287 195.4 658.526 188.536 663.134 180.28C667.837 171.928 670.189 162.184 670.189 151.048C670.189 140.584 668.221 131.944 664.286 125.128C660.446 118.312 655.503 112.84 649.455 108.712C643.504 104.488 637.265 101.224 630.738 98.92C624.21 96.52 618.259 94.6 612.883 93.16L576.887 83.368C572.472 82.216 568.152 80.776 563.929 79.048C559.705 77.32 556.202 75.064 553.418 72.28C550.634 69.4 549.243 65.704 549.243 61.192C549.243 56.296 550.922 52.072 554.282 48.52C557.738 44.968 562.153 42.28 567.529 40.456C573 38.536 578.807 37.672 584.951 37.864C594.358 38.152 602.997 40.936 610.868 46.216C618.739 51.496 623.826 59.176 626.13 69.256L668.461 62.056C663.47 42.568 653.775 27.64 639.377 17.272C624.978 6.904 607.028 1.576 585.527 1.288C571.32 1.19199 558.362 3.39999 546.651 7.912C534.94 12.424 525.581 19.288 518.574 28.504C511.567 37.72 508.063 49.288 508.063 63.208C508.063 73.096 509.695 81.304 512.959 87.832C516.318 94.264 520.494 99.448 525.485 103.384C530.477 107.32 535.612 110.344 540.891 112.456C546.267 114.568 550.97 116.2 555.002 117.352L608.852 133.192C616.915 135.592 622.29 138.616 624.978 142.264C627.666 145.816 629.01 149.704 629.01 153.928C629.01 159.688 627.042 164.536 623.106 168.472C619.267 172.408 614.323 175.384 608.276 177.4C602.229 179.416 595.989 180.424 589.558 180.424C578.039 180.424 567.768 177.208 558.745 170.776C549.722 164.344 543.771 155.176 540.891 143.272L500 149.32C502.112 163.336 507.103 175.432 514.974 185.608C522.941 195.688 533.068 203.464 545.355 208.936C557.738 214.312 571.608 217 586.966 217Z" fill="#1A1A1A"/>
<path d="M706.156 212.68H745.32V118.216L827.966 212.68H877.497L785.347 107.56L872.026 5.32H824.223L745.32 100.936V5.32H706.156V212.68Z" fill="#1A1A1A"/>
<path d="M979.438 217C1000.17 217 1018.03 212.488 1033 203.464C1048.07 194.44 1059.64 181.816 1067.7 165.592C1075.86 149.368 1079.94 130.504 1079.94 109C1079.94 87.496 1075.86 68.632 1067.7 52.408C1059.64 36.184 1048.07 23.56 1033 14.536C1018.03 5.512 1000.17 1 979.438 1C958.704 1 940.802 5.512 925.732 14.536C910.757 23.56 899.191 36.184 891.031 52.408C882.968 68.632 878.937 87.496 878.937 109C878.937 130.504 882.968 149.368 891.031 165.592C899.191 181.816 910.757 194.44 925.732 203.464C940.802 212.488 958.704 217 979.438 217ZM979.438 180.136C959.76 179.848 944.977 173.32 935.091 160.552C925.3 147.784 920.404 130.6 920.404 109C920.404 87.4 925.3 70.072 935.091 57.016C944.977 43.96 959.76 37.576 979.438 37.864C999.211 38.152 1013.99 44.68 1023.78 57.448C1033.58 70.216 1038.47 87.4 1038.47 109C1038.47 130.6 1033.58 147.928 1023.78 160.984C1013.99 174.04 999.211 180.424 979.438 180.136Z" fill="#1A1A1A"/>
<path d="M1115.88 212.68H1244.31V176.104H1155.04V5.32H1115.88V212.68Z" fill="#1A1A1A"/>
<path d="M1273.12 212.68H1312.28V142.408H1360.66C1362.58 142.408 1365.27 142.312 1368.72 142.12C1372.18 141.928 1375.25 141.64 1377.94 141.256C1396.37 138.376 1409.9 130.792 1418.54 118.504C1427.18 106.12 1431.5 91.24 1431.5 73.864C1431.5 56.392 1427.23 41.512 1418.68 29.224C1410.14 16.936 1396.56 9.352 1377.94 6.472C1375.25 5.992 1372.18 5.704 1368.72 5.60799C1365.36 5.41599 1362.67 5.32 1360.66 5.32H1273.12V212.68ZM1312.28 105.832V41.896H1358.93C1360.95 41.896 1363.15 41.992 1365.55 42.184C1367.95 42.376 1370.16 42.76 1372.18 43.336C1377.46 44.776 1381.54 47.224 1384.42 50.68C1387.29 54.04 1389.26 57.832 1390.32 62.056C1391.47 66.184 1392.05 70.12 1392.05 73.864C1392.05 77.608 1391.47 81.592 1390.32 85.816C1389.26 89.944 1387.29 93.736 1384.42 97.192C1381.54 100.552 1377.46 102.952 1372.18 104.392C1370.16 104.968 1367.95 105.352 1365.55 105.544C1363.15 105.736 1360.95 105.832 1358.93 105.832H1312.28Z" fill="#1A1A1A"/>
<path d="M1553.71 217C1574.44 217 1592.3 212.488 1607.27 203.464C1622.34 194.44 1633.91 181.816 1641.97 165.592C1650.13 149.368 1654.21 130.504 1654.21 109C1654.21 87.496 1650.13 68.632 1641.97 52.408C1633.91 36.184 1622.34 23.56 1607.27 14.536C1592.3 5.512 1574.44 1 1553.71 1C1532.98 1 1515.07 5.512 1500 14.536C1485.03 23.56 1473.46 36.184 1465.3 52.408C1457.24 68.632 1453.21 87.496 1453.21 109C1453.21 130.504 1457.24 149.368 1465.3 165.592C1473.46 181.816 1485.03 194.44 1500 203.464C1515.07 212.488 1532.98 217 1553.71 217ZM1553.71 180.136C1534.03 179.848 1519.25 173.32 1509.36 160.552C1499.57 147.784 1494.68 130.6 1494.68 109C1494.68 87.4 1499.57 70.072 1509.36 57.016C1519.25 43.96 1534.03 37.576 1553.71 37.864C1573.48 38.152 1588.27 44.68 1598.06 57.448C1607.85 70.216 1612.74 87.4 1612.74 109C1612.74 130.6 1607.85 147.928 1598.06 160.984C1588.27 174.04 1573.48 180.424 1553.71 180.136Z" fill="#1A1A1A"/>
<path d="M1723.19 212.68H1781.65L1845 5.32H1804.68L1751.99 175.816L1700.15 5.32H1659.84L1723.19 212.68Z" fill="#1A1A1A"/>
<defs>
<linearGradient id="paint0_linear" x1="212.5" y1="141.094" x2="212.5" y2="1084.62" gradientUnits="userSpaceOnUse">
<stop stop-color="#DA373A"/>
<stop offset="1" stop-color="#D13236" stop-opacity="0"/>
</linearGradient>
</defs>
</svg>
