<svg width="60" height="61" viewBox="0 0 60 61" fill="none" xmlns="http://www.w3.org/2000/svg">
<path d="M39.3735 10.3159C39.1249 10.3159 38.8864 10.2171 38.7106 10.0413C38.5348 9.86552 38.436 9.62706 38.436 9.37842V6.56592C38.436 6.31728 38.5348 6.07882 38.7106 5.90301C38.8864 5.72719 39.1249 5.62842 39.3735 5.62842C39.6222 5.62842 39.8606 5.72719 40.0364 5.90301C40.2123 6.07882 40.311 6.31728 40.311 6.56592V9.37842C40.311 9.62706 40.2123 9.86552 40.0364 10.0413C39.8606 10.2171 39.6222 10.3159 39.3735 10.3159Z" fill="#F5B02E"/>
<path d="M20.6235 10.3159C20.8722 10.3159 21.1106 10.2171 21.2864 10.0413C21.4623 9.86552 21.561 9.62706 21.561 9.37842V6.56592C21.561 6.31728 21.4623 6.07882 21.2864 5.90301C21.1106 5.72719 20.8722 5.62842 20.6235 5.62842C20.3749 5.62842 20.1364 5.72719 19.9606 5.90301C19.7848 6.07882 19.686 6.31728 19.686 6.56592V9.37842C19.686 9.62706 19.7848 9.86552 19.9606 10.0413C20.1364 10.2171 20.3749 10.3159 20.6235 10.3159Z" fill="#F5B02E"/>
<path d="M29.9985 6.56592C29.7499 6.56592 29.5114 6.46715 29.3356 6.29133C29.1598 6.11552 29.061 5.87706 29.061 5.62842V2.81592C29.061 2.56728 29.1598 2.32882 29.3356 2.15301C29.5114 1.97719 29.7499 1.87842 29.9985 1.87842C30.2472 1.87842 30.4856 1.97719 30.6614 2.15301C30.8372 2.32882 30.936 2.56728 30.936 2.81592V5.62842C30.936 5.87706 30.8372 6.11552 30.6614 6.29133C30.4856 6.46715 30.2472 6.56592 29.9985 6.56592V6.56592Z" fill="#F5B02E"/>
<path d="M37.499 14.0659L37.239 15.0034L41.2215 15.229L41.249 14.0659L42.0241 10.1899C42.0689 9.96585 42.0304 9.73314 41.9157 9.53551C41.801 9.33789 41.6181 9.18896 41.4013 9.1167L40.1449 8.69788C39.6445 8.53105 39.1035 8.53105 38.6031 8.69788L37.3466 9.1167C37.1298 9.18896 36.9469 9.33789 36.8322 9.53551C36.7175 9.73314 36.679 9.96585 36.7238 10.1899L37.499 14.0659Z" fill="#FDB62F"/>
<path d="M22.499 14.0659L22.7589 15.0034L18.7764 15.229L18.749 14.0659L17.9738 10.1894C17.929 9.96533 17.9675 9.73262 18.0822 9.535C18.1969 9.33737 18.3798 9.18844 18.5966 9.11619L19.8531 8.69736C20.3535 8.53049 20.8945 8.53049 21.3948 8.69736L22.6513 9.11619C22.8681 9.18844 23.051 9.33737 23.1657 9.535C23.2804 9.73262 23.319 9.96533 23.2742 10.1894L22.499 14.0659Z" fill="#FDB62F"/>
<path d="M35.1483 16.6329C34.9938 16.6331 34.8417 16.5951 34.7054 16.5223C34.5692 16.4495 34.453 16.3441 34.3674 16.2155L32.3093 13.1284H27.6877L25.6297 16.2161C25.5614 16.3185 25.4736 16.4065 25.3713 16.475C25.269 16.5435 25.1542 16.5912 25.0335 16.6154C24.9128 16.6395 24.7885 16.6396 24.6677 16.6157C24.5469 16.5919 24.432 16.5444 24.3296 16.4761C24.2272 16.4078 24.1392 16.32 24.0707 16.2177C24.0022 16.1154 23.9545 16.0007 23.9303 15.8799C23.9062 15.7592 23.906 15.6349 23.9299 15.5141C23.9538 15.3934 24.0013 15.2785 24.0696 15.176L26.8735 11.2534H33.1236L35.9275 15.176C36.0216 15.3172 36.0756 15.4812 36.0838 15.6506C36.092 15.82 36.0541 15.9884 35.9742 16.138C35.8942 16.2876 35.7752 16.4126 35.6297 16.4999C35.4843 16.5872 35.3179 16.6333 35.1483 16.6335V16.6329Z" fill="#F5B02E"/>
<path d="M32.3096 13.1284H27.6879L26.8737 11.2534L25.8703 8.24313C25.7189 7.7894 25.7467 7.29497 25.9478 6.86101C26.149 6.42706 26.5085 6.0864 26.9526 5.90875L29.9986 4.69L33.0447 5.90875C33.4887 6.08637 33.848 6.42693 34.0492 6.86075C34.2504 7.29457 34.2782 7.78888 34.127 8.24254L33.1238 11.2534L32.3096 13.1284Z" fill="#FDB62F"/>
<path d="M43.1246 49.6909C43.0476 49.691 42.9709 49.6816 42.8962 49.6629L39.1462 48.7254C39.015 48.6926 38.8924 48.6318 38.7869 48.5472C38.6815 48.4626 38.5955 48.3561 38.535 48.2352L36.66 44.4852C36.605 44.3751 36.5721 44.2552 36.5634 44.1324C36.5547 44.0095 36.5702 43.8862 36.6091 43.7694C36.6481 43.6526 36.7096 43.5446 36.7903 43.4516C36.871 43.3585 36.9692 43.2823 37.0793 43.2272C37.1894 43.1722 37.3093 43.1393 37.4321 43.1306C37.5549 43.1219 37.6783 43.1374 37.7951 43.1763C37.9119 43.2153 38.0199 43.2768 38.1129 43.3575C38.2059 43.4382 38.2822 43.5364 38.3372 43.6465L40.0196 47.011L43.3512 47.8438C43.5732 47.8992 43.7673 48.0339 43.8969 48.2224C44.0265 48.411 44.0826 48.6405 44.0548 48.8676C44.0269 49.0947 43.9169 49.3038 43.7456 49.4554C43.5743 49.6071 43.3534 49.6908 43.1246 49.6909V49.6909Z" fill="#EC9E15"/>
<path d="M16.8727 49.6909C16.6439 49.6908 16.423 49.607 16.2517 49.4554C16.0804 49.3037 15.9704 49.0947 15.9425 48.8676C15.9147 48.6405 15.9708 48.411 16.1004 48.2224C16.23 48.0338 16.4241 47.8992 16.6461 47.8438L19.9777 47.011L21.6601 43.6465C21.7713 43.4241 21.9663 43.255 22.2022 43.1763C22.4381 43.0977 22.6956 43.116 22.918 43.2272C23.1404 43.3385 23.3095 43.5335 23.3882 43.7694C23.4668 44.0053 23.4485 44.2628 23.3372 44.4852L21.4622 48.2352C21.4018 48.3561 21.3158 48.4626 21.2103 48.5472C21.1048 48.6318 20.9823 48.6926 20.8511 48.7254L17.1011 49.6629C17.0264 49.6816 16.9497 49.691 16.8727 49.6909V49.6909Z" fill="#EC9E15"/>
<path d="M24.3735 25.3159L21.9793 28.7226C21.6181 29.0951 21.1377 29.3293 20.6217 29.3844C20.1057 29.4395 19.5868 29.312 19.1551 29.0241L19.118 28.9995C18.7287 28.7414 18.4299 28.3681 18.2633 27.9318C18.0967 27.4955 18.0707 27.018 18.189 26.5662C18.2799 26.2192 18.3733 25.8562 18.4572 25.5278C18.5449 25.1842 18.5328 24.8226 18.4224 24.4856C18.312 24.1486 18.1078 23.85 17.8338 23.6249L2.81104 11.2534L4.37197 15.416C5.19231 17.6031 6.56721 19.5394 8.36174 21.0347L11.2485 23.4409L3.74854 22.5034C4.9676 24.3318 6.73064 25.7307 8.7883 26.5022L13.1235 28.1284L4.68604 29.0659L6.32947 30.0521C8.34085 31.2589 10.5614 32.0764 12.8751 32.462L14.9985 32.8159L14.272 33.1792C12.2907 34.1698 10.6022 35.6603 9.37354 37.5034H9.74326C11.9473 37.5034 14.1021 36.851 15.936 35.6284V39.3784L18.7485 36.5659L20.6235 38.4409L21.4585 37.1884C21.7785 36.7086 22.2119 36.3151 22.7205 36.043C23.229 35.7709 23.7968 35.6285 24.3735 35.6284V25.3159Z" fill="#FDB62F"/>
<path d="M35.6235 25.3159L38.0178 28.7231C38.379 29.0957 38.8594 29.3299 39.3753 29.385C39.8913 29.4401 40.4103 29.3126 40.842 29.0247L40.879 29.0001C41.2683 28.742 41.5672 28.3687 41.7338 27.9324C41.9004 27.4961 41.9264 27.0186 41.8081 26.5668C41.7173 26.2198 41.6238 25.8567 41.5399 25.5284C41.4522 25.1847 41.4642 24.8232 41.5747 24.4862C41.6851 24.1492 41.8893 23.8506 42.1633 23.6255L57.186 11.2534L55.6251 15.416C54.8049 17.6034 53.4299 19.5398 51.6353 21.0353L48.7485 23.4409L56.2485 22.5034C55.0295 24.3321 53.2664 25.7311 51.2087 26.5028L46.8735 28.1284L55.311 29.0659L53.6676 30.0515C51.6562 31.2583 49.4357 32.0758 47.122 32.4614L44.9985 32.8159L45.7251 33.1792C47.7064 34.1698 49.3948 35.6603 50.6235 37.5034H50.2538C48.0497 37.5034 45.895 36.851 44.061 35.6284V39.3784L41.2485 36.5659L39.3735 38.4409L38.5386 37.1884C38.2186 36.7086 37.7851 36.3151 37.2766 36.043C36.7681 35.7709 36.2003 35.6285 35.6235 35.6284V25.3159Z" fill="#FDB62F"/>
<path d="M20.4601 33.6159C19.3323 33.6168 18.2295 33.2834 17.291 32.6579C17.0841 32.52 16.9405 32.3056 16.8917 32.0617C16.843 31.8179 16.8931 31.5647 17.031 31.3579C17.1689 31.151 17.3834 31.0073 17.6272 30.9586C17.871 30.9098 18.1242 30.9599 18.3311 31.0978C18.9922 31.538 19.7735 31.7625 20.5675 31.7406C21.3615 31.7186 22.1292 31.4512 22.765 30.9751L23.7579 30.2304L24.6485 29.3398C24.8252 29.1682 25.0623 29.073 25.3085 29.0749C25.5548 29.0767 25.7905 29.1753 25.9646 29.3494C26.1387 29.5236 26.2373 29.7593 26.2391 30.0055C26.2409 30.2518 26.1457 30.4889 25.9741 30.6655L25.0366 31.603C25.0054 31.6344 24.9719 31.6635 24.9365 31.69L23.8904 32.4745C22.9008 33.2165 21.697 33.6171 20.4601 33.6159Z" fill="#EFAC2D"/>
<path d="M39.5371 33.616C38.3003 33.617 37.0966 33.2165 36.107 32.4748L35.061 31.6902C35.0255 31.6637 34.9921 31.6346 34.9608 31.6033L34.0233 30.6658C33.8517 30.4891 33.7565 30.252 33.7583 30.0058C33.7601 29.7595 33.8587 29.5238 34.0329 29.3497C34.207 29.1755 34.4426 29.0769 34.6889 29.0751C34.9352 29.0733 35.1723 29.1684 35.3489 29.34L36.2395 30.2306L37.2325 30.9754C37.8683 31.4514 38.636 31.7188 39.4299 31.7408C40.2239 31.7628 41.0052 31.5382 41.6664 31.0981C41.7688 31.0298 41.8837 30.9823 42.0045 30.9584C42.1253 30.9345 42.2496 30.9347 42.3703 30.9588C42.491 30.983 42.6058 31.0307 42.7081 31.0992C42.8104 31.1677 42.8982 31.2557 42.9665 31.3581C43.0348 31.4605 43.0822 31.5754 43.1061 31.6962C43.13 31.817 43.1298 31.9413 43.1057 32.062C43.0816 32.1827 43.0339 32.2975 42.9654 32.3998C42.8968 32.5021 42.8089 32.5899 42.7064 32.6582C41.7678 33.2836 40.665 33.6169 39.5371 33.616Z" fill="#EFAC2D"/>
<path d="M20.398 14.0659H21.4831C22.6777 14.0659 23.857 14.3346 24.9337 14.852C26.0105 15.3694 26.957 16.1224 27.7033 17.0551C28.5925 18.1666 29.1677 19.496 29.369 20.9051L29.9995 25.3159H24.3745L24.9494 22.4413C25.0644 21.8665 25.0651 21.2747 24.9513 20.6996C24.8376 20.1245 24.6117 19.5775 24.2865 19.0897C23.7361 18.2639 22.9261 17.645 21.9846 17.3311C21.5535 17.1874 21.0984 17.1299 20.6452 17.1621C20.1919 17.1943 19.7495 17.3154 19.3431 17.5186L16.8745 18.7534L17.476 16.3473C17.5814 15.9258 17.7767 15.5321 18.0486 15.1932C18.3205 14.8543 18.6624 14.5783 19.051 14.384C19.4692 14.1748 19.9304 14.0659 20.398 14.0659V14.0659Z" fill="#FDB62F"/>
<path d="M33.6506 43.646L33.2771 42.8989L33.7495 42.1909C34.9666 42.7994 35.9535 43.7863 36.562 45.0034H39.3745C39.3745 44.1117 39.1989 43.2287 38.8577 42.4049C38.5164 41.5811 38.0163 40.8326 37.3857 40.2021L36.7229 39.5392C36.0196 38.8359 35.6245 37.8821 35.6245 36.8876V35.6284L29.9995 40.3159L24.3745 34.2273V36.8874C24.3745 37.882 23.9794 38.8358 23.2761 39.5391L22.6133 40.202C21.9827 40.8325 21.4826 41.581 21.1413 42.4049C20.8001 43.2287 20.6245 44.1117 20.6245 45.0034H23.437C24.0455 43.7863 25.0324 42.7994 26.2495 42.1909L26.7226 42.9005L26.3731 43.6008L24.0184 47.7216C23.0238 49.4637 22.5003 51.4349 22.4995 53.4409C22.4995 53.6895 22.5983 53.928 22.7741 54.1038C22.9499 54.2796 23.1884 54.3784 23.437 54.3784C23.6857 54.3784 23.9241 54.2796 24.0999 54.1038C24.2757 53.928 24.3745 53.6895 24.3745 53.4409C24.3753 51.7612 24.8136 50.1106 25.6462 48.6518L26.929 46.4054L26.8148 46.6911C25.8032 49.2061 25.615 51.9772 26.2774 54.6058C26.3073 54.7253 26.3604 54.8377 26.4337 54.9366C26.507 55.0355 26.5991 55.1191 26.7047 55.1824C26.8103 55.2457 26.9273 55.2877 27.0491 55.3058C27.1709 55.3239 27.2951 55.3178 27.4145 55.2879C27.534 55.2581 27.6464 55.2049 27.7453 55.1316C27.8442 55.0583 27.9277 54.9662 27.9911 54.8606C28.0544 54.755 28.0963 54.638 28.1144 54.5162C28.1326 54.3944 28.1265 54.2703 28.0966 54.1508C27.5302 51.9047 27.691 49.5368 28.5558 47.3878L28.9631 46.3602L28.9913 46.3037L29.0617 46.4092V57.1904C29.0617 57.4391 29.1604 57.6775 29.3362 57.8533C29.5121 58.0291 29.7505 58.1279 29.9992 58.1279C30.2478 58.1279 30.4863 58.0291 30.6621 57.8533C30.8379 57.6775 30.9367 57.4391 30.9367 57.1904V46.4096L31.0085 46.3018L31.4434 47.3878C32.3078 49.5369 32.4684 51.9047 31.902 54.1508C31.8417 54.3921 31.8797 54.6474 32.0076 54.8606C32.1355 55.0739 32.3429 55.2276 32.5841 55.2879C32.8254 55.3483 33.0807 55.3103 33.294 55.1824C33.5072 55.0545 33.6609 54.8471 33.7213 54.6058C34.3835 51.9772 34.1956 49.2062 33.1843 46.6911L33.0696 46.4067L34.3526 48.6518C35.1852 50.1106 35.6235 51.7612 35.6245 53.4409C35.6245 53.6895 35.7233 53.928 35.8991 54.1038C36.0749 54.2796 36.3134 54.3784 36.562 54.3784C36.8106 54.3784 37.0491 54.2796 37.2249 54.1038C37.4007 53.928 37.4995 53.6895 37.4995 53.4409C37.4987 51.4349 36.9752 49.4637 35.9806 47.7216L33.6506 43.646Z" fill="#FDB62F"/>
<path d="M44.9995 51.5659C44.2578 51.5659 43.5328 51.346 42.9161 50.9339C42.2994 50.5219 41.8188 49.9362 41.535 49.251C41.2511 48.5658 41.1769 47.8118 41.3216 47.0843C41.4663 46.3569 41.8234 45.6887 42.3479 45.1643C42.8723 44.6398 43.5405 44.2827 44.2679 44.138C44.9954 43.9933 45.7494 44.0675 46.4346 44.3514C47.1198 44.6352 47.7055 45.1158 48.1175 45.7325C48.5296 46.3492 48.7495 47.0742 48.7495 47.8159C48.7484 48.8101 48.3529 49.7633 47.6499 50.4663C46.9469 51.1693 45.9937 51.5648 44.9995 51.5659V51.5659Z" fill="#FDB62F"/>
<path d="M39.6005 14.0659H38.5154C37.3207 14.0659 36.1413 14.3346 35.0645 14.8522C33.9877 15.3697 33.041 16.1228 32.2947 17.0557C31.4055 18.1672 30.8304 19.4966 30.629 20.9057L29.999 25.3159H35.624L35.0491 22.4413C34.9341 21.8665 34.9334 21.2747 35.0472 20.6996C35.1609 20.1245 35.3868 19.5775 35.712 19.0897C36.2626 18.2638 37.0727 17.6451 38.0144 17.3312C38.4454 17.1875 38.9006 17.1301 39.3538 17.1622C39.8071 17.1944 40.2495 17.3155 40.6559 17.5187L43.124 18.7534L42.5225 16.3473C42.4171 15.9258 42.2218 15.5321 41.9499 15.1932C41.6781 14.8543 41.3361 14.5783 40.9475 14.384C40.5293 14.1748 40.0681 14.0659 39.6005 14.0659V14.0659Z" fill="#FDB62F"/>
<path d="M19.6874 50.6184C19.5557 50.6185 19.4254 50.5909 19.3052 50.5374C19.1849 50.4838 19.0772 50.4055 18.9893 50.3075L14.0741 44.8359C13.991 44.7444 13.9269 44.6375 13.8853 44.5212C13.8437 44.4048 13.8255 44.2815 13.8318 44.1581C13.838 44.0347 13.8686 43.9138 13.9217 43.8023C13.9749 43.6908 14.0495 43.5909 14.1414 43.5083C14.2333 43.4257 14.3406 43.3621 14.4571 43.3211C14.5736 43.2802 14.6971 43.2626 14.8204 43.2695C14.9438 43.2764 15.0645 43.3076 15.1758 43.3614C15.287 43.4151 15.3865 43.4902 15.4686 43.5825L20.384 49.0541C20.5051 49.1888 20.5846 49.3557 20.6128 49.5347C20.6411 49.7136 20.6169 49.8968 20.5432 50.0623C20.4695 50.2277 20.3495 50.3683 20.1976 50.467C20.0457 50.5657 19.8685 50.6183 19.6874 50.6184V50.6184Z" fill="#FDB62F"/>
<path d="M15.4686 43.5825C15.3865 43.4902 15.287 43.4151 15.1758 43.3614C15.0645 43.3076 14.9438 43.2764 14.8204 43.2695C14.6971 43.2626 14.5736 43.2802 14.4571 43.3211C14.3406 43.3621 14.2333 43.4257 14.1414 43.5083C14.0495 43.5909 13.9749 43.6908 13.9217 43.8023C13.8686 43.9138 13.838 44.0347 13.8318 44.1581C13.8255 44.2815 13.8437 44.4048 13.8853 44.5212C13.9269 44.6375 13.991 44.7444 14.0741 44.8359L15.3404 46.2456C15.9481 46.0312 16.4641 45.6151 16.8023 45.0665L15.4686 43.5825Z" fill="#F5B02E"/>
<path d="M48.6154 46.8784H45.936V43.1284C45.936 42.8798 45.8373 42.6413 45.6614 42.4655C45.4856 42.2897 45.2472 42.1909 44.9985 42.1909C44.7499 42.1909 44.5114 42.2897 44.3356 42.4655C44.1598 42.6413 44.061 42.8798 44.061 43.1284V46.8784H41.3817C41.2042 47.4908 41.2042 48.141 41.3817 48.7534H48.6154C48.7929 48.141 48.7929 47.4908 48.6154 46.8784V46.8784Z" fill="#EC9E15"/>
<path d="M34.3415 38.8677L29.9985 40.3159L25.6556 38.8682C25.2822 38.7437 24.9575 38.505 24.7274 38.1857C24.4973 37.8665 24.3735 37.4829 24.3735 37.0894V25.3159H35.6235V37.0889C35.6235 37.4825 35.4997 37.866 35.2696 38.1853C35.0395 38.5045 34.7148 38.7433 34.3415 38.8677V38.8677Z" fill="#DE4C3B"/>
<path d="M24.3735 36.1514C24.3735 36.545 24.4973 36.9285 24.7274 37.2478C24.9575 37.567 25.2822 37.8058 25.6556 37.9302L29.9985 39.3784L34.3415 37.9307C34.7148 37.8062 35.0395 37.5675 35.2696 37.2482C35.4997 36.929 35.6235 36.5454 35.6235 36.1519V25.3159H24.3735V36.1514Z" fill="#F85542"/>
<path d="M28.1235 32.8159C27.8749 32.8159 27.6364 32.7171 27.4606 32.5413C27.2848 32.3655 27.186 32.1271 27.186 31.8784V29.0659C27.186 28.8173 27.2848 28.5788 27.4606 28.403C27.6364 28.2272 27.8749 28.1284 28.1235 28.1284C28.3722 28.1284 28.6106 28.2272 28.7864 28.403C28.9623 28.5788 29.061 28.8173 29.061 29.0659V31.8784C29.061 32.1271 28.9623 32.3655 28.7864 32.5413C28.6106 32.7171 28.3722 32.8159 28.1235 32.8159Z" fill="#4298D1"/>
<path d="M32.8112 29.0659C32.2314 29.0677 31.6665 29.2489 31.1938 29.5846C30.7212 29.9203 30.364 30.3941 30.1714 30.9409H28.1237C27.9638 30.9409 27.8067 30.9817 27.6671 31.0596C27.5275 31.1374 27.4101 31.2496 27.326 31.3856C27.242 31.5215 27.1941 31.6767 27.187 31.8364C27.1798 31.996 27.2136 32.1549 27.2851 32.2978L27.6297 32.9863C27.7145 33.1557 27.7438 33.3475 27.7135 33.5345C27.6832 33.7215 27.5948 33.8942 27.4609 34.0281C27.2893 34.2048 27.1941 34.4418 27.1959 34.6881C27.1977 34.9344 27.2963 35.17 27.4704 35.3442C27.6446 35.5183 27.8802 35.617 28.1265 35.6188C28.3727 35.6206 28.6098 35.5254 28.7865 35.3538C29.1137 35.0272 29.3541 34.6239 29.4858 34.1806C29.6175 33.7374 29.6363 33.2683 29.5405 32.8159H30.5063C30.7844 33.2021 30.9347 33.6657 30.9362 34.1417V34.6909C30.9362 34.9396 31.0349 35.178 31.2108 35.3538C31.3866 35.5296 31.625 35.6284 31.8737 35.6284C32.1223 35.6284 32.3608 35.5296 32.5366 35.3538C32.7124 35.178 32.8112 34.9396 32.8112 34.6909V34.1417C32.8082 33.224 32.4968 32.3339 31.9271 31.6145C31.9819 31.4218 32.0977 31.252 32.257 31.1306C32.4164 31.0091 32.6108 30.9426 32.8112 30.9409C33.0598 30.9409 33.2983 30.8421 33.4741 30.6663C33.6499 30.4905 33.7487 30.2521 33.7487 30.0034C33.7487 29.7548 33.6499 29.5163 33.4741 29.3405C33.2983 29.1647 33.0598 29.0659 32.8112 29.0659Z" fill="#F8F8F8"/>
<path d="M14.0412 45.941C13.9185 45.9411 13.7958 45.9333 13.6741 45.9175C12.9504 45.8235 12.2916 45.4518 11.8369 44.8809C11.3823 44.31 11.1674 43.5847 11.2377 42.8583C11.308 42.1319 11.658 41.4613 12.2137 40.9882C12.7694 40.5151 13.4872 40.2766 14.2155 40.3231C14.9439 40.3696 15.6256 40.6974 16.1166 41.2373C16.6076 41.7773 16.8695 42.4869 16.8469 43.2164C16.8242 43.9458 16.5189 44.6379 15.9953 45.1463C15.4718 45.6548 14.771 45.9397 14.0412 45.941V45.941Z" fill="#FDB62F"/>
</svg>
