<svg width="63" height="63" viewBox="0 0 63 63" fill="none" xmlns="http://www.w3.org/2000/svg">
<path d="M58.7036 54.2024C61.0726 54.2024 63 52.275 63 49.9058V6.15234C63 2.75994 60.2401 0 56.8477 0H6.15234C2.75994 0 0 2.75994 0 6.15234V49.9058C0 52.275 1.92741 54.2024 4.29643 54.2024H5.66016V60.5391H1.23047C0.550881 60.5391 0 61.0901 0 61.7695C0 62.449 0.550881 63 1.23047 63H61.7695C62.4491 63 63 62.449 63 61.7695C63 61.0901 62.4491 60.5391 61.7695 60.5391H57.3398V54.2024H58.7036ZM2.46094 6.15234C2.46094 4.1169 4.1169 2.46094 6.15234 2.46094H56.8477C58.8831 2.46094 60.5391 4.1169 60.5391 6.15234V8.85938H2.58448C2.54276 8.85938 2.50154 8.86159 2.46094 8.86565V6.15234ZM13.5352 60.5391H8.12109V49.4648H13.5352V60.5391ZM27.3164 60.5391H21.9023V35.8598H27.3164V60.5391ZM41.0977 60.5391H35.6836V46.2656H41.0977V60.5391ZM56.1094 31.5615H48.2344C47.5548 31.5615 47.0039 32.1125 47.0039 32.792V39.0057C47.0039 39.6852 47.5548 40.2362 48.2344 40.2362C48.914 40.2362 49.4648 39.6852 49.4648 39.0057V34.0225H54.8789V60.5391H49.4648V47.2808C49.4648 46.6013 48.914 46.0503 48.2344 46.0503C47.5548 46.0503 47.0039 46.6013 47.0039 47.2808V60.5391H43.5586V45.0352C43.5586 44.3557 43.0077 43.8047 42.3281 43.8047H34.4531C33.7735 43.8047 33.2227 44.3557 33.2227 45.0352V60.5391H29.7773V34.6293C29.7773 33.9499 29.2265 33.3989 28.5469 33.3989H20.6719C19.9923 33.3989 19.4414 33.9499 19.4414 34.6293V60.5391H15.9961V48.2344C15.9961 47.5549 15.4452 47.0039 14.7656 47.0039H6.89062C6.21104 47.0039 5.66016 47.5549 5.66016 48.2344V51.7415H4.29643C3.28424 51.7415 2.46094 50.918 2.46094 49.9058V11.314C2.50154 11.3181 2.54276 11.3203 2.58448 11.3203H60.5391V49.9058C60.5391 50.918 59.7156 51.7415 58.7036 51.7415H57.3398V32.792C57.3398 32.1125 56.789 31.5615 56.1094 31.5615Z" fill="white"/>
<path d="M55.125 4.42969H27.3245C26.6449 4.42969 26.094 4.98069 26.094 5.66016C26.094 6.33962 26.6449 6.89062 27.3245 6.89062H55.125C55.8046 6.89062 56.3555 6.33962 56.3555 5.66016C56.3555 4.98069 55.8046 4.42969 55.125 4.42969Z" fill="white"/>
<path d="M13.6668 4.79022C13.4379 4.56135 13.1205 4.42969 12.7969 4.42969C12.4733 4.42969 12.1558 4.56122 11.9269 4.79022C11.6981 5.01908 11.5664 5.33654 11.5664 5.66016C11.5664 5.98377 11.6981 6.30123 11.9269 6.52997C12.1558 6.75896 12.4733 6.89062 12.7969 6.89062C13.1205 6.89062 13.4379 6.75896 13.6668 6.52997C13.8957 6.30123 14.0273 5.98377 14.0273 5.66016C14.0273 5.33654 13.8957 5.01908 13.6668 4.79022Z" fill="white"/>
<path d="M8.74494 4.79022C8.51607 4.56135 8.19861 4.42969 7.875 4.42969C7.55139 4.42969 7.23393 4.56122 7.00506 4.79022C6.77619 5.01908 6.64453 5.33654 6.64453 5.66016C6.64453 5.98377 6.77619 6.30123 7.00506 6.52997C7.23393 6.75896 7.55139 6.89062 7.875 6.89062C8.19861 6.89062 8.51607 6.75896 8.74494 6.52997C8.97381 6.30123 9.10547 5.98377 9.10547 5.66016C9.10547 5.33654 8.97381 5.01908 8.74494 4.79022Z" fill="white"/>
<path d="M18.5887 4.79022C18.3598 4.56135 18.0436 4.42969 17.7188 4.42969C17.3951 4.42969 17.0777 4.56122 16.8488 4.79022C16.6199 5.01908 16.4883 5.33654 16.4883 5.66016C16.4883 5.98377 16.6199 6.30123 16.8488 6.52997C17.0777 6.75896 17.3951 6.89062 17.7188 6.89062C18.0424 6.89062 18.3598 6.75896 18.5887 6.52997C18.8176 6.30123 18.9492 5.98377 18.9492 5.66016C18.9492 5.33654 18.8176 5.01908 18.5887 4.79022Z" fill="white"/>
<path d="M49.1043 42.5213C48.8755 42.2912 48.558 42.1608 48.2344 42.1608C47.9108 42.1608 47.5933 42.2913 47.3644 42.5213C47.1356 42.7502 47.0039 43.0676 47.0039 43.3913C47.0039 43.7149 47.1356 44.0323 47.3644 44.2612C47.5933 44.4899 47.9108 44.6217 48.2344 44.6217C48.558 44.6217 48.8755 44.4901 49.1043 44.2612C49.3332 44.0323 49.4648 43.7149 49.4648 43.3913C49.4648 43.0664 49.3332 42.7502 49.1043 42.5213Z" fill="white"/>
<path d="M52.1719 16.7269C49.7293 16.7269 47.7422 18.714 47.7422 21.1566C47.7422 22.1268 48.0566 23.0245 48.5877 23.7551L40.4143 31.9284C39.78 31.5774 39.0513 31.3768 38.2764 31.3768C37.5781 31.3768 36.9173 31.5399 36.3293 31.8289L27.7949 23.2945C28.1459 22.6602 28.3465 21.9315 28.3465 21.1566C28.3465 18.714 26.3594 16.7269 23.9168 16.7269C21.4742 16.7269 19.4871 18.714 19.4871 21.1566C19.4871 22.0103 19.7305 22.8078 20.1506 23.4848L12.8843 30.751C12.25 30.4 11.5213 30.1994 10.7465 30.1994C8.30386 30.1994 6.31678 32.1865 6.31678 34.6291C6.31678 37.0717 8.30386 39.0588 10.7465 39.0588C13.1891 39.0588 15.1762 37.0717 15.1762 34.6291C15.1762 33.8541 14.9756 33.1255 14.6245 32.4911L21.9776 25.1381C22.5636 25.4247 23.2217 25.5861 23.9168 25.5861C24.6916 25.5861 25.4203 25.3856 26.0546 25.0345L34.5055 33.4852C34.0882 34.1608 33.8467 34.9557 33.8467 35.8063C33.8467 38.2489 35.8338 40.236 38.2764 40.236C40.719 40.236 42.706 38.2489 42.706 35.8063C42.706 35.0313 42.5055 34.3026 42.1544 33.6683L50.5468 25.2759C51.0505 25.4755 51.5984 25.5862 52.1719 25.5862C54.6145 25.5862 56.6016 23.5992 56.6016 21.1566C56.6016 18.714 54.6145 16.7269 52.1719 16.7269ZM10.7466 36.5981C9.66107 36.5981 8.77784 35.7148 8.77784 34.6293C8.77784 33.5438 9.66107 32.6606 10.7466 32.6606C11.8321 32.6606 12.7153 33.5438 12.7153 34.6293C12.7153 35.7148 11.8321 36.5981 10.7466 36.5981ZM23.9169 23.1253C22.8314 23.1253 21.9482 22.2421 21.9482 21.1566C21.9482 20.071 22.8314 19.1878 23.9169 19.1878C25.0024 19.1878 25.8857 20.071 25.8857 21.1566C25.8857 22.2421 25.0024 23.1253 23.9169 23.1253ZM38.2765 37.7753C37.191 37.7753 36.3077 36.892 36.3077 35.8065C36.3077 34.721 37.191 33.8378 38.2765 33.8378C39.362 33.8378 40.2452 34.721 40.2452 35.8065C40.2452 36.892 39.362 37.7753 38.2765 37.7753ZM52.1719 23.1253C51.0864 23.1253 50.2032 22.2421 50.2032 21.1566C50.2032 20.071 51.0864 19.1878 52.1719 19.1878C53.2574 19.1878 54.1407 20.071 54.1407 21.1566C54.1407 22.2421 53.2574 23.1253 52.1719 23.1253Z" fill="white"/>
<path d="M18.2517 15.867C18.0216 15.6382 17.7054 15.5064 17.3818 15.5064C17.0569 15.5064 16.7395 15.638 16.5106 15.867C16.2817 16.0958 16.1513 16.4132 16.1513 16.7368C16.1513 17.0605 16.2817 17.3779 16.5106 17.6068C16.7407 17.8357 17.0569 17.9673 17.3818 17.9673C17.7054 17.9673 18.0216 17.8358 18.2517 17.6068C18.4806 17.3779 18.6123 17.0605 18.6123 16.7368C18.6123 16.4132 18.4806 16.0958 18.2517 15.867Z" fill="white"/>
<path d="M12.7969 15.5065H6.89062C6.21104 15.5065 5.66016 16.0575 5.66016 16.737C5.66016 17.4164 6.21104 17.9674 6.89062 17.9674H12.7969C13.4765 17.9674 14.0273 17.4164 14.0273 16.737C14.0273 16.0575 13.4765 15.5065 12.7969 15.5065Z" fill="white"/>
<path d="M12.7969 21.4127H6.89062C6.21104 21.4127 5.66016 21.9637 5.66016 22.6432C5.66016 23.3227 6.21104 23.8737 6.89062 23.8737H12.7969C13.4765 23.8737 14.0273 23.3227 14.0273 22.6432C14.0273 21.9637 13.4765 21.4127 12.7969 21.4127Z" fill="white"/>
</svg>
