<svg width="69" height="69" viewBox="0 0 69 69" fill="none" xmlns="http://www.w3.org/2000/svg">
<path d="M49.6229 11.883C46.682 11.883 44.2893 14.2758 44.2893 17.2166C44.2893 20.1575 46.682 22.5502 49.6229 22.5502C52.5637 22.5502 54.9564 20.1575 54.9564 17.2166C54.9564 14.2758 52.5637 11.883 49.6229 11.883ZM49.6229 20.5247C47.7987 20.5247 46.3146 19.0407 46.3146 17.2165C46.3146 15.3924 47.7985 13.9083 49.6229 13.9083C51.447 13.9083 52.9311 15.3923 52.9311 17.2165C52.9311 19.0407 51.447 20.5247 49.6229 20.5247Z" fill="white"/>
<path d="M30.1787 48.6105C26.6422 48.6105 23.7649 51.4879 23.7649 55.0244C23.7649 59.4438 29.2298 64.9596 29.4625 65.1924C29.6526 65.3824 29.91 65.489 30.1786 65.489C30.4472 65.489 30.7047 65.3822 30.8947 65.1924C31.1272 64.9599 36.5923 59.4438 36.5923 55.0244C36.5926 51.4877 33.7152 48.6105 30.1787 48.6105ZM30.1787 62.9996C28.5122 61.1448 25.7904 57.5788 25.7904 55.0242C25.7904 52.6045 27.7589 50.6359 30.1787 50.6359C32.5986 50.6359 34.5671 52.6045 34.5671 55.0242C34.5672 57.579 31.8451 61.1452 30.1787 62.9996Z" fill="white"/>
<path d="M30.1789 51.9861C28.5038 51.9861 27.1408 53.349 27.1408 55.0242C27.1408 56.6995 28.5038 58.0624 30.1789 58.0624C31.854 58.0624 33.217 56.6995 33.217 55.0242C33.217 53.349 31.854 51.9861 30.1789 51.9861ZM30.1789 56.037C29.6204 56.037 29.1661 55.5827 29.1661 55.0242C29.1661 54.4658 29.6204 54.0115 30.1789 54.0115C30.7374 54.0115 31.1916 54.4658 31.1916 55.0242C31.1916 55.5827 30.7374 56.037 30.1789 56.037Z" fill="white"/>
<path d="M43.5226 0.0769514C43.0053 -0.136381 42.4134 0.109834 42.2002 0.626792L37.2868 12.5335L19.2208 7.75545V1.0133C19.2208 0.454023 18.7674 0.000539725 18.208 0.000539725C17.6486 0.000539725 17.1952 0.454023 17.1952 1.0133V8.53533C17.1952 8.99488 17.5047 9.39675 17.949 9.51426L37.6256 14.7185C37.7121 14.7413 37.7989 14.7522 37.8849 14.7522C38.2865 14.7522 38.6613 14.5122 38.8208 14.1256L44.0723 1.3994C44.2857 0.882441 44.0394 0.290284 43.5226 0.0769514Z" fill="white"/>
<path d="M13.0661 40.3482L1.27198 37.2287C0.73171 37.0857 0.177153 37.4082 0.033898 37.9487C-0.109087 38.4895 0.213405 39.0437 0.753947 39.1867L11.7943 42.1067V49.218C11.7943 49.7773 12.2476 50.2308 12.807 50.2308C13.3665 50.2308 13.8198 49.7773 13.8198 49.218V41.3271C13.8198 40.8677 13.5104 40.4657 13.0661 40.3482Z" fill="white"/>
<path d="M12.8074 0.00140234C12.2479 0.00140234 11.7946 0.454886 11.7946 1.01416V5.79211L1.2723 3.00908C0.732025 2.86596 0.177468 3.18859 0.0342128 3.72913C-0.108773 4.26994 0.213719 4.8241 0.754261 4.96708L12.5483 8.08648C12.6338 8.10899 12.7207 8.12018 12.8074 8.12018C13.0284 8.12018 13.2462 8.04767 13.4251 7.90994C13.6743 7.71817 13.8201 7.42169 13.8201 7.10742V1.01416C13.8201 0.454886 13.3666 0.00140234 12.8074 0.00140234Z" fill="white"/>
<path d="M12.807 53.0664C12.2476 53.0664 11.7942 53.5198 11.7942 54.0791V67.987C11.7942 68.5462 12.2476 68.9997 12.807 68.9997C13.3664 68.9997 13.8198 68.5462 13.8198 67.987V54.0791C13.8198 53.5198 13.3663 53.0664 12.807 53.0664Z" fill="white"/>
<path d="M13.0661 11.7144L1.27198 8.59504C0.73171 8.45192 0.177153 8.77454 0.033898 9.31509C-0.109087 9.85576 0.213405 10.4101 0.753947 10.553L11.7944 13.4733V34.425L1.27198 31.642C0.73171 31.4989 0.177153 31.8215 0.033898 32.362C-0.109087 32.9028 0.213405 33.457 0.753947 33.6L12.548 36.7194C12.6335 36.7419 12.7204 36.7531 12.807 36.7531C13.0281 36.7531 13.2458 36.6806 13.4248 36.5428C13.674 36.3511 13.8198 36.0547 13.8198 35.7403V12.6934C13.8198 12.234 13.5104 11.832 13.0661 11.7144Z" fill="white"/>
<path d="M68.3728 9.22842C67.8555 9.01482 67.2636 9.26117 67.0504 9.77826L63.0964 19.36L59.2043 18.3306C59.2512 17.9551 59.2773 17.5829 59.2773 17.2163C59.2773 11.8929 54.9462 7.56192 49.6229 7.56192C48.8043 7.56192 48.0096 7.66515 47.2501 7.85773L49.9152 1.39926C50.1285 0.882301 49.8823 0.290144 49.3655 0.0768112C48.848 -0.136522 48.2562 0.109559 48.043 0.626652L44.5974 8.97628C41.8235 10.6744 39.9683 13.7325 39.9683 17.2162C39.9683 17.7577 40.0228 18.3108 40.1224 18.8703L18.467 13.1431C18.1634 13.0629 17.8393 13.128 17.5902 13.3197C17.341 13.5115 17.1952 13.8079 17.1952 14.1223V19.2526C15.9224 20.4255 15.1231 22.1051 15.1231 23.9682C15.1231 25.8094 16.0717 27.8405 17.1952 29.6008V37.1689C17.1952 37.6285 17.5046 38.0304 17.949 38.1479L52.782 47.3611C52.8686 47.3839 52.9553 47.3948 53.0413 47.3948C53.4429 47.3948 53.8177 47.1548 53.9773 46.7682L62.5518 25.9893C62.6633 25.7193 62.6526 25.4146 62.523 25.153C62.3932 24.8915 62.157 24.6986 61.8748 24.624L57.4756 23.4604C58.0055 22.425 58.4556 21.3648 58.7738 20.312L63.4356 21.545C63.5221 21.5678 63.6089 21.5787 63.6949 21.5787C64.0965 21.5787 64.4713 21.3387 64.6308 20.9522L68.923 10.5509C69.136 10.0339 68.8898 9.44176 68.3728 9.22842ZM49.6227 9.58744C53.8294 9.58744 57.2518 13.0098 57.2518 17.2165C57.2518 22.146 51.6456 28.6735 49.6227 30.8683C47.5999 28.6736 41.9937 22.146 41.9937 17.2165C41.9937 13.0099 45.4161 9.58744 49.6227 9.58744ZM17.1486 23.9679C17.1486 21.5482 19.1171 19.5796 21.5369 19.5796C23.9568 19.5796 25.9253 21.5482 25.9253 23.9679C25.9253 26.5227 23.2033 30.0888 21.5369 31.9433C19.8704 30.0885 17.1486 26.5225 17.1486 23.9679ZM60.2382 26.286L52.4432 45.1763L19.2207 36.3892V32.3547C20.0741 33.3831 20.7428 34.0579 20.8209 34.1361C21.011 34.3261 21.2684 34.4327 21.5371 34.4327C21.8058 34.4327 22.0632 34.326 22.2532 34.1361C22.4858 33.9035 27.9508 28.3875 27.9508 23.9681C27.9508 20.4316 25.0734 17.5542 21.5369 17.5542C20.7203 17.5542 19.9397 17.7092 19.2207 17.9888V15.4373L40.7439 21.1299C42.8621 26.9585 48.6093 32.7582 48.9065 33.0555C49.0965 33.2455 49.3539 33.3521 49.6226 33.3521C49.8913 33.3521 50.1487 33.2454 50.3387 33.0555C50.5639 32.8303 53.9174 29.4461 56.451 25.2843L60.2382 26.286Z" fill="white"/>
<path d="M68.2456 54.9427L56.4897 51.8334C55.9986 51.7036 55.4882 51.9571 55.2946 52.4262L49.0327 67.6008C48.8194 68.1177 49.0656 68.7099 49.5824 68.9232C49.709 68.9754 49.8397 69 49.9684 69C50.3662 69 50.7437 68.764 50.905 68.3734L56.8287 54.0182L67.7277 56.901C68.2687 57.0445 68.8227 56.7215 68.9658 56.1809C69.1086 55.64 68.7862 55.0857 68.2456 54.9427Z" fill="white"/>
<path d="M68.2456 49.3557L59.6866 47.092L67.8198 27.3825C68.0331 26.8655 67.787 26.2733 67.27 26.06C66.7528 25.8467 66.1608 26.0928 65.9476 26.6099L57.3729 47.3888C57.2615 47.6588 57.2721 47.9635 57.4017 48.2251C57.5315 48.4866 57.7678 48.6795 58.05 48.7541L67.7274 51.3137C67.8142 51.3366 67.9013 51.3477 67.9871 51.3477C68.4354 51.3477 68.8453 51.0476 68.9655 50.5937C69.1086 50.0533 68.7862 49.499 68.2456 49.3557Z" fill="white"/>
<path d="M51.8698 50.9691C51.7401 50.7076 51.5038 50.5147 51.2216 50.4401L18.467 41.7767C18.1634 41.6965 17.8393 41.7617 17.5902 41.9534C17.3411 42.1451 17.1952 42.4415 17.1952 42.7559V67.987C17.1952 68.5462 17.6486 68.9997 18.208 68.9997C18.7674 68.9997 19.2208 68.5462 19.2208 67.987V44.0711L49.5852 52.1022L43.1898 67.6006C42.9764 68.1176 43.2225 68.7097 43.7395 68.9231C43.866 68.9752 43.9967 68.9999 44.1254 68.9999C44.5233 68.9999 44.9007 68.7639 45.0621 68.3732L51.8989 51.8054C52.0101 51.5356 51.9995 51.2307 51.8698 50.9691Z" fill="white"/>
<path d="M21.5371 20.9298C19.862 20.9298 18.499 22.2927 18.499 23.9679C18.499 25.6432 19.862 27.0061 21.5371 27.0061C23.2122 27.0061 24.5752 25.6432 24.5752 23.9679C24.5752 22.2927 23.2124 20.9298 21.5371 20.9298ZM21.5371 24.9807C20.9786 24.9807 20.5243 24.5264 20.5243 23.9679C20.5243 23.4095 20.9786 22.9552 21.5371 22.9552C22.0956 22.9552 22.5499 23.4095 22.5499 23.9679C22.5499 24.5264 22.0956 24.9807 21.5371 24.9807Z" fill="white"/>
</svg>
