<svg width="69" height="69" viewBox="0 0 69 69" fill="none" xmlns="http://www.w3.org/2000/svg">
<path d="M25.3007 14.9518H27.6005C28.2356 14.9518 28.7504 14.437 28.7504 13.8019C28.7504 13.1668 28.2355 12.652 27.6005 12.652H25.3007C24.6656 12.652 24.1508 13.1668 24.1508 13.8019C24.1508 14.437 24.6656 14.9518 25.3007 14.9518Z" fill="white"/>
<path d="M32.1999 14.9518H43.6989C44.334 14.9518 44.8487 14.437 44.8487 13.8019C44.8487 13.1668 44.334 12.652 43.6989 12.652H32.1999C31.5648 12.652 31.0501 13.1668 31.0501 13.8019C31.0501 14.437 31.5648 14.9518 32.1999 14.9518Z" fill="white"/>
<path d="M25.3007 19.5513H27.6005C28.2356 19.5513 28.7504 19.0366 28.7504 18.4015C28.7504 17.7664 28.2355 17.2516 27.6005 17.2516H25.3007C24.6656 17.2516 24.1508 17.7664 24.1508 18.4015C24.1508 19.0366 24.6656 19.5513 25.3007 19.5513Z" fill="white"/>
<path d="M32.1999 19.5513H43.6989C44.334 19.5513 44.8487 19.0366 44.8487 18.4015C44.8487 17.7664 44.334 17.2516 43.6989 17.2516H32.1999C31.5648 17.2516 31.0501 17.7664 31.0501 18.4015C31.0501 19.0366 31.5648 19.5513 32.1999 19.5513Z" fill="white"/>
<path d="M25.3007 24.1509H27.6005C28.2356 24.1509 28.7504 23.6361 28.7504 23.001C28.7504 22.3659 28.2355 21.8512 27.6005 21.8512H25.3007C24.6656 21.8512 24.1508 22.3659 24.1508 23.001C24.1508 23.6361 24.6656 24.1509 25.3007 24.1509Z" fill="white"/>
<path d="M68.9967 36.329C69.0877 31.2458 65.9267 26.6706 61.14 24.9573C61.2479 24.2414 61.3028 23.5186 61.304 22.7945C61.414 15.6484 56.2987 9.48852 49.254 8.28369C48.8886 7.44632 48.0624 6.90448 47.1488 6.90313H41.1495C37.6458 2.56809 32.3807 0.0353903 26.8068 0.00372314C16.2685 0.00372314 7.69535 9.0154 7.69535 20.0927C7.69602 21.6947 7.87713 23.2915 8.2349 24.8529C3.26746 26.4541 -0.072687 31.1103 0.00250581 36.329C-0.141951 42.7802 4.95876 48.133 11.4094 48.2996H28.75V56.3488H25.3003C24.8475 56.349 24.4369 56.6147 24.2514 57.0279C24.0658 57.441 24.1399 57.9244 24.4407 58.2629L33.6399 68.612C33.8582 68.8574 34.1711 68.9978 34.4995 68.9978C34.8281 68.9978 35.1408 68.8574 35.3591 68.612L44.5584 58.2629C44.8592 57.9244 44.9331 57.4409 44.7477 57.0279C44.5622 56.6148 44.1516 56.349 43.6988 56.3488H40.2491V48.2996H57.5896C64.0405 48.133 69.1412 42.7802 68.9967 36.329ZM47.1486 9.20298V32.201H40.1212C38.9223 32.2024 37.9507 33.174 37.9494 34.3729V41.4003H21.8509V9.20298H47.1486ZM45.5226 34.5008L40.2492 39.7741V34.5008H45.5226ZM41.1381 58.6487L34.4997 66.1169L27.8613 58.6487H29.9001C30.5352 58.6487 31.05 58.1339 31.05 57.4988V48.2996H37.9494V57.4988C37.9494 58.1339 38.4641 58.6487 39.0992 58.6487H41.1381ZM57.5898 45.9999H11.4096C6.22882 45.8338 2.15749 41.5104 2.30249 36.329C2.20412 31.7574 5.37461 27.7637 9.84925 26.8226C10.1678 26.7632 10.4465 26.5722 10.6168 26.2965C10.7871 26.0208 10.8332 25.6861 10.7436 25.3747C10.2485 23.6576 9.99667 21.8798 9.99519 20.0929C9.99519 10.2838 17.537 2.30371 26.8068 2.30371C30.9993 2.32392 35.0197 3.97331 38.0185 6.90327H21.8507C20.5811 6.90448 19.5522 7.93346 19.5509 9.20311V41.4003C19.5521 42.67 20.5811 43.6988 21.8507 43.7002H39.0992C39.404 43.6988 39.6962 43.5777 39.9126 43.3629L49.1111 34.1644L49.1127 34.1623C49.2051 34.0666 49.28 33.9554 49.3341 33.8339C49.3868 33.7021 49.4205 33.5634 49.4339 33.4221C49.4355 33.3973 49.4482 33.3762 49.4482 33.351V10.6384C55.1141 11.9102 59.106 16.9885 59.004 22.7945C59.0003 23.7136 58.8974 24.6296 58.6975 25.5267C58.5624 26.1401 58.9451 26.7484 59.5565 26.8921C63.844 27.9909 66.8049 31.9042 66.6967 36.3288C66.842 41.5103 62.7705 45.8337 57.5898 45.9999Z" fill="white"/>
<path d="M32.1999 24.1509H43.6989C44.334 24.1509 44.8487 23.6361 44.8487 23.001C44.8487 22.3659 44.334 21.8512 43.6989 21.8512H32.1999C31.5648 21.8512 31.0501 22.3659 31.0501 23.001C31.0501 23.6361 31.5648 24.1509 32.1999 24.1509Z" fill="white"/>
</svg>
