<svg width="69" height="69" viewBox="0 0 69 69" fill="none" xmlns="http://www.w3.org/2000/svg">
<path d="M5.53822 32.9232C6.83157 32.9232 6.83371 30.9132 5.53822 30.9132C4.24487 30.9132 4.24273 32.9232 5.53822 32.9232Z" fill="white"/>
<path d="M9.8698 33.8636C11.1631 33.8636 11.1653 31.8536 9.8698 31.8536C8.57645 31.8536 8.57431 33.8636 9.8698 33.8636Z" fill="white"/>
<path d="M14.2018 34.3338C15.4952 34.3338 15.4973 32.3238 14.2018 32.3238C12.9085 32.3238 12.9063 34.3338 14.2018 34.3338Z" fill="white"/>
<path d="M5.53822 45.7327C4.24487 45.7327 4.24273 47.7427 5.53822 47.7427C6.83144 47.7427 6.83358 45.7327 5.53822 45.7327Z" fill="white"/>
<path d="M9.8698 46.6732C8.57645 46.6732 8.57431 48.6832 9.8698 48.6832C11.163 48.6832 11.1652 46.6732 9.8698 46.6732Z" fill="white"/>
<path d="M14.2018 47.1434C12.9085 47.1434 12.9063 49.1534 14.2018 49.1534C15.495 49.1534 15.4972 47.1434 14.2018 47.1434Z" fill="white"/>
<path d="M5.53822 60.5524C4.24487 60.5524 4.24273 62.5623 5.53822 62.5623C6.83144 62.5623 6.83358 60.5524 5.53822 60.5524Z" fill="white"/>
<path d="M9.8698 61.4928C8.57645 61.4928 8.57431 63.5027 9.8698 63.5027C11.163 63.5027 11.1652 61.4928 9.8698 61.4928Z" fill="white"/>
<path d="M14.2018 61.963C12.9085 61.963 12.9063 63.9729 14.2018 63.9729C15.495 63.9729 15.4972 61.963 14.2018 61.963Z" fill="white"/>
<path d="M20.6888 16.63C21.2436 16.63 21.6938 16.1797 21.6938 15.625C21.6474 14.2945 19.7291 14.295 19.6838 15.625C19.6838 16.1797 20.1329 16.63 20.6888 16.63Z" fill="white"/>
<path d="M20.6888 11.27C21.2436 11.27 21.6938 10.8198 21.6938 10.2651C21.6474 8.93459 19.7291 8.93512 19.6838 10.2651C19.6838 10.8198 20.1329 11.27 20.6888 11.27Z" fill="white"/>
<path d="M20.6888 5.91011C21.2436 5.91011 21.6938 5.45988 21.6938 4.90513C21.6474 3.57466 19.7291 3.5752 19.6838 4.90513C19.6838 5.45988 20.1329 5.91011 20.6888 5.91011Z" fill="white"/>
<path d="M36.7687 5.91011C37.3234 5.91011 37.7737 5.45988 37.7737 4.90513C37.7273 3.57466 35.809 3.5752 35.7637 4.90513C35.7637 5.45988 36.2127 5.91011 36.7687 5.91011Z" fill="white"/>
<path d="M31.4086 5.91011C31.9633 5.91011 32.4136 5.45988 32.4136 4.90513C32.3672 3.57466 30.4489 3.5752 30.4036 4.90513C30.4036 5.45988 30.8526 5.91011 31.4086 5.91011Z" fill="white"/>
<path d="M26.0485 5.91011C26.6032 5.91011 27.0535 5.45988 27.0535 4.90513C27.0071 3.57466 25.0888 3.5752 25.0435 4.90513C25.0435 5.45988 25.4925 5.91011 26.0485 5.91011Z" fill="white"/>
<path d="M68.8033 9.67305C68.8033 9.11803 68.3535 8.66806 67.7984 8.66806H66.2686V3.66096C66.2686 3.10594 65.8188 2.65597 65.2637 2.65597H50.8784L48.517 0.294394C48.3285 0.105858 48.0728 0 47.8063 0H42.9364C42.3812 0 41.9314 0.449965 41.9314 1.00499V16.8642C41.9314 17.4192 42.3812 17.8692 42.9364 17.8692H53.623V26.7353C53.623 27.2903 54.0728 27.7403 54.628 27.7403H62.8534C63.1236 27.7415 63.3874 27.632 63.5769 27.4386L68.5161 22.3982C68.6986 22.212 68.8033 21.9545 68.8033 21.6948V9.67305ZM43.9414 15.8592V2.00997H47.3899L49.7514 4.37155C49.9399 4.56009 50.1954 4.66594 50.4621 4.66594H64.2587V8.66806H54.628C54.0728 8.66806 53.623 9.11803 53.623 9.67305V15.8592H43.9414ZM55.633 10.678H66.7934V20.6898H62.8592C62.304 20.6898 61.8542 21.1398 61.8542 21.6948V25.7303H55.633V10.678ZM63.8642 22.6998H65.4065L63.8642 24.2737V22.6998Z" fill="white"/>
<path d="M59.3653 50.7213C58.7434 48.3591 57.4179 46.1938 55.5774 44.5574C55.1625 44.1884 54.5273 44.2259 54.1586 44.6406C53.7897 45.0555 53.827 45.6906 54.2418 46.0594C55.9598 47.5871 57.143 49.6619 57.5736 51.9016C57.6943 52.5291 58.2205 52.7116 58.7682 52.7116C68.0262 53.092 68.0357 66.2935 58.7682 66.6782H35.7997C31.9491 66.6782 28.8165 63.5456 28.8165 59.6949C28.8165 55.8442 31.9491 52.7116 35.7997 52.7116C36.3429 52.7116 36.8744 52.5245 36.9943 51.9016C38.0439 46.0381 44.2191 42.1707 49.9606 43.7597C50.4971 43.9014 51.0471 43.5808 51.1886 43.0439C51.3299 42.5073 51.0094 41.9575 50.4727 41.8161C49.4327 41.5421 48.3599 41.4031 47.284 41.4031C45.2831 41.4031 43.3743 41.8797 41.6777 42.7337V39.3488C41.6777 38.4103 41.0335 37.6049 39.7207 36.9142C41.0321 36.2222 41.6777 35.4151 41.6777 34.4809V24.6674C41.4378 18.8344 16.8155 19.1606 11.474 20.0125C10.1573 20.2073 10.3736 22.1157 11.7003 22.0096C18.4259 21.2105 28.207 21.3909 34.2593 22.6288C38.2977 23.4275 39.5203 24.3651 39.6611 24.6674C39.5203 24.9696 38.2977 25.9073 34.2593 26.7061C27.1622 28.1715 14.7116 28.1715 7.61455 26.7061C3.58925 25.91 2.36156 24.9758 2.21403 24.6704C2.29671 24.5283 2.93749 23.6779 6.67134 22.8291C7.95893 22.4888 7.53241 20.6199 6.22593 20.8691C2.16861 21.7914 0.196289 23.0339 0.196289 24.6674V34.4809C0.196289 35.4151 0.841892 36.2223 2.1532 36.9142C0.840552 37.6049 0.196289 38.4103 0.196289 39.3488V49.1623C0.196289 50.0962 0.84149 50.9032 2.15186 51.5949C0.83948 52.2847 0.196289 53.0892 0.196289 54.0301V63.8436C0.440433 68.4498 15.617 68.9666 20.9369 68.9997C25.2231 68.9996 29.3134 68.7175 32.7657 68.1838C32.7799 68.1817 32.7939 68.1791 32.8078 68.1763C33.7442 68.5076 34.7512 68.6879 35.7996 68.6879H58.768C70.3351 68.2697 70.8419 51.887 59.3653 50.7213ZM35.2019 50.7213C34.0174 50.7995 32.8946 51.1081 31.8784 51.6026C24.9028 52.645 14.1337 52.5339 7.61469 51.201C3.50497 50.3882 2.31145 49.4315 2.20653 49.147V41.8101C9.82874 45.4302 32.0259 45.4362 39.6678 41.8101V43.9973C37.5232 45.6474 35.9168 47.9858 35.2019 50.7213ZM6.77506 28.5862C15.1892 30.3066 31.8561 30.625 39.6678 27.1286V34.4655C35.3858 38.6649 6.52153 38.6776 2.20653 34.4655V27.1286C3.28615 27.6881 4.80542 28.1719 6.77506 28.5862ZM6.77506 38.3997C15.0276 40.1132 28.7734 40.1362 36.9201 37.9618C39.1545 38.6452 39.593 39.2354 39.6599 39.3516C39.5129 39.6568 38.2854 40.5912 34.2594 41.3874C27.1623 42.8528 14.7115 42.8528 7.61455 41.3874C3.58858 40.5912 2.36116 39.6567 2.21417 39.3516C2.28103 39.2354 2.71961 38.6452 4.95402 37.9618C5.51132 38.1156 6.1182 38.2615 6.77506 38.3997ZM6.77506 53.0812C12.5691 54.3496 22.1348 54.6284 28.8657 53.9743C28.1448 54.8465 27.5851 55.8564 27.2323 56.9581C21.1532 57.4578 5.77583 57.2552 2.21403 54.033C2.70299 53.1807 4.17804 53.0564 4.91021 52.6309C5.47956 52.7893 6.10078 52.9393 6.77506 53.0812ZM20.9372 66.9899C15.4542 66.9758 4.82793 66.3885 2.20653 63.8284V56.4914C8.26927 59.2582 19.2377 59.4224 26.8334 59.0001C26.592 61.9153 27.8602 64.7551 29.9571 66.5265C27.1937 66.8311 24.1236 66.9899 20.9372 66.9899Z" fill="white"/>
<path d="M59.8055 43.5636C60.3604 43.5636 60.8105 43.1133 60.8105 42.5586C60.7642 41.2282 58.8467 41.2286 58.8005 42.5586C58.8005 43.1133 59.2507 43.5636 59.8055 43.5636Z" fill="white"/>
<path d="M59.8055 38.2036C60.3604 38.2036 60.8105 37.7534 60.8105 37.1987C60.7642 35.8683 58.8467 35.8687 58.8005 37.1987C58.8005 37.7534 59.2507 38.2036 59.8055 38.2036Z" fill="white"/>
<path d="M59.8055 32.8437C60.3604 32.8437 60.8105 32.3935 60.8105 31.8387C60.7642 30.5084 58.8467 30.5088 58.8005 31.8387C58.8005 32.3935 59.2507 32.8437 59.8055 32.8437Z" fill="white"/>
</svg>
