<svg width="213" height="187" viewBox="0 0 213 187" fill="none" xmlns="http://www.w3.org/2000/svg">
<g clip-path="url(#clip0)">
<circle cx="104" cy="91" r="87" fill="url(#paint0_radial)"/>
<path style="mix-blend-mode:screen" d="M64.0059 17.3494C64.0059 17.3494 63.9381 17.3043 63.7575 17.3494H63.6522L62.7491 17.5299C62.1255 17.7207 61.5398 18.0185 61.0182 18.4097V18.4097C61.116 18.4097 61.2214 18.4097 61.3192 18.4548C61.417 18.5 61.4246 18.6203 61.3945 18.6654C61.0613 18.9439 60.7065 19.1953 60.3333 19.4174C60.243 19.4625 60.2355 19.4625 60.1828 19.4625C60.1226 19.2294 60.4011 19.1542 60.4086 18.9512C60.0399 19.0753 59.7068 19.2869 59.4378 19.5678C59.4302 19.5923 59.4302 19.6185 59.4378 19.643C59.4829 19.816 59.5732 19.9663 59.6109 20.1468C59.6371 20.2119 59.6549 20.2802 59.6636 20.3499C59.6636 20.4777 59.5808 20.598 59.6033 20.7334C59.5976 20.7556 59.5976 20.7789 59.6033 20.8011C59.8291 21.0342 61.8611 19.8611 62.3879 19.2971C62.5083 19.1768 62.8544 18.4774 62.6287 18.4849C62.3846 18.5233 62.1451 18.5863 61.9137 18.6729C62.3803 18.3571 62.9071 18.139 63.3812 17.8232C63.4113 17.8908 63.9683 17.387 64.0059 17.3494Z" fill="#2D164E"/>
<path style="mix-blend-mode:screen" d="M58.2561 23.4407H58.2185C58.147 23.4696 58.0809 23.5103 58.0228 23.561C57.6821 23.8967 57.3228 24.213 56.9467 24.5085C56.2543 24.9296 56.0511 25.0575 56.021 25.1552C56.1127 25.1572 56.2042 25.1446 56.2919 25.1176C56.5553 25.065 56.5854 25.065 56.6381 25.1176C56.6908 25.1703 56.7058 25.3282 56.8262 25.3658C56.9653 25.3713 57.1044 25.3586 57.2402 25.3282C57.8576 25.2512 58.4413 25.0038 58.9259 24.6138C59.0614 24.4559 58.7302 23.8618 58.7302 23.8618C58.6229 23.6731 58.4563 23.525 58.2561 23.4407V23.4407Z" fill="#2D164E"/>
<path style="mix-blend-mode:screen" d="M59.9192 18.4248C59.8519 18.4147 59.7834 18.4147 59.716 18.4248C59.2935 18.5297 58.9064 18.7452 58.5947 19.049V19.049C58.6549 19.049 58.7227 19.049 58.7829 19.049C58.8431 19.049 58.7829 19.1016 58.7377 19.2294C58.6926 19.3573 58.6023 19.5152 58.7377 19.4776C59.0682 19.2842 59.3761 19.0547 59.6558 18.7933C59.9719 18.5602 60.0472 18.4398 59.9192 18.4248Z" fill="#2D164E"/>
<path style="mix-blend-mode:screen" d="M88.2536 6.91923C87.6389 7.42299 86.9059 7.76202 86.1238 7.90435C85.0433 8.19683 83.9805 8.55085 82.9404 8.96466C82.1051 10.0851 84.2048 10.4687 84.2273 10.4687C89.4276 10.0851 89.4953 10.1453 89.8565 10.4687C89.8565 10.4687 92.3024 13.1758 91.5122 14.6347C91.1961 15.2288 91.1961 15.2514 91.2111 15.3341C91.2714 15.6499 91.6476 15.6725 91.753 15.9357C91.9186 16.3418 91.753 16.808 91.9788 17.199C92.6636 17.0411 93.213 16.3267 94.0333 16.6877C94.2127 16.732 94.3795 16.8173 94.5204 16.9369C94.6613 17.0565 94.7726 17.207 94.8455 17.3768C94.9184 17.5465 94.951 17.7309 94.9406 17.9153C94.9303 18.0998 94.8773 18.2793 94.7858 18.4398C94.2139 19.1166 93.1754 19.0865 92.6561 19.8536C92.2784 20.5414 92.1559 21.3403 92.3099 22.1096C92.4077 22.4254 96.4716 29.3062 98.4207 29.9604C97.4424 15.6725 96.7275 9.1677 95.7416 6.08451C96.6296 8.79922 97.3446 14.1309 98.4207 29.9604C103.29 30.8929 103.388 30.7801 103.689 30.4267C104.208 29.8476 105.081 25.4033 105.088 25.3582C105.216 24.704 104.87 24.0121 105.247 23.3805C105.442 23.0496 105.465 23.0421 106.684 22.6736C110.514 21.5155 110.514 21.5155 110.62 20.7861C110.725 20.0566 110.778 19.628 111.47 19.2821C113.141 18.4323 115.068 18.312 116.738 17.4547C117.448 17.1618 118.137 16.8201 118.8 16.432C118.8 16.432 119.131 16.1914 118.74 15.68C118.168 14.928 117.303 14.5219 116.753 13.7624C116.506 13.2442 116.312 12.7026 116.174 12.1456C115.895 11.5365 116.016 11.3936 116.362 11.0251C116.836 10.5439 116.505 10.3483 115.534 9.77682C112.351 7.89683 112.321 7.85171 112.05 7.43059L112.102 7.29523L112.268 7.23507C111.342 6.32515 109.453 7.04707 108.994 5.31748L108.678 5.15956C108.695 5.07049 108.718 4.98259 108.746 4.89636H108.874C108.452 4.84372 107.248 4.761 107.241 4.761C106.565 4.7474 105.889 4.80283 105.224 4.92644C104.524 5.05428 103.937 4.59556 103.267 4.573C102.327 4.573 100.257 4.573 99.4292 4.573C97.924 4.65572 97.924 4.65572 97.7359 4.77604C96.9148 4.77874 96.0959 4.85931 95.2901 5.01668C95.2901 5.01668 95.2901 5.01668 95.2449 5.01668H95.3126C95.7356 5.01797 96.157 5.06589 96.5694 5.15956C96.4866 5.15956 96.4866 5.15956 95.4105 5.15956C95.0311 5.14855 94.6514 5.16362 94.2741 5.20468C91.9728 5.44997 89.7178 6.01962 87.5763 6.89667C87.6967 6.91923 87.6967 6.91923 88.2536 6.91923Z" fill="#2D164E"/>
<path style="mix-blend-mode:screen" d="M73.5709 23.3053C73.7666 22.7789 73.6838 22.5533 73.3075 22.5984C73.3075 22.5984 72.1937 22.8917 71.983 23.388C71.8701 23.6738 72.3291 24.4107 72.5098 24.5235C72.9989 24.8168 73.5634 23.3278 73.5709 23.3053Z" fill="#2D164E"/>
<path style="mix-blend-mode:screen" d="M81.4504 7.64114C81.202 7.7389 80.9537 7.82914 80.6978 7.9269C81.4955 7.7389 84.0693 7.03202 84.4607 6.91922C82.9819 7.44774 81.4743 7.89213 79.9453 8.25026C79.7346 8.28101 79.5366 8.36952 79.3733 8.50593C79.3292 8.79403 79.2068 9.06453 79.0196 9.28801C78.267 9.05489 76.2577 10.213 76.1824 10.2731C76.3555 10.3483 76.5662 10.3182 76.7318 10.4235V10.5138C77.148 10.4501 77.5533 10.3286 77.9359 10.1528C76.4684 10.9499 76.2953 10.7619 76.1824 10.6341C75.0686 10.6341 75.0084 11.0853 74.9783 11.2883C74.3461 11.7019 73.5259 11.747 72.9614 12.3035L73.0141 12.3862C73.5077 12.3782 73.9983 12.3074 74.4741 12.1757C75.332 12.0027 76.0846 11.4237 77.0253 11.6042C76.9576 11.7696 76.9576 11.7696 76.7619 11.92C77.3865 12.0478 79.3883 11.0778 79.2077 10.5814L78.982 10.5288C79.5163 10.0748 80.1116 9.69764 80.7505 9.40833C82.5341 8.97969 83.1662 8.31042 83.1813 8.16002H83.091C84.1082 7.97818 85.0941 7.65149 86.0185 7.18994C85.8764 7.18012 85.7338 7.19539 85.597 7.23506L89.5405 6.0093C88.5772 6.14466 88.517 6.15218 88.1558 6.18226C89.0814 5.9341 90.0372 5.79874 90.9628 5.55811C90.0673 5.55811 88.5697 5.7461 88.5546 5.7461C88.5396 5.7461 84.9197 6.36274 84.1446 6.66354C84.1816 6.71481 84.2307 6.75614 84.2876 6.78386C84.0762 6.85235 83.8507 6.8653 83.6328 6.82146C83.3694 6.82146 80.2764 7.57346 79.9603 7.91938C80.0732 7.97954 80.1108 7.99458 81.4504 7.64114Z" fill="#2D164E"/>
<path style="mix-blend-mode:screen" d="M80.0279 23.3954C80.5848 23.3503 81.804 24.8994 81.819 24.8994C82.1125 25.2829 82.4136 25.6514 82.692 25.6514C83.4446 25.5085 84.6035 22.5833 84.6111 22.5532C84.6439 22.4538 84.6592 22.3495 84.6562 22.2449L79.0571 20.974C79.5724 20.6286 80.1285 20.3483 80.7128 20.1393C81.2998 19.8761 81.6008 19.7482 81.5782 19.5903C81.5331 19.1918 79.5613 17.3343 78.6131 17.1764C78.1793 17.1963 77.7451 17.1481 77.3262 17.0335C76.8897 16.823 76.9424 16.1161 76.3479 16.0635C75.4495 16.1781 74.574 16.4292 73.7515 16.8079C72.8785 17.1388 72.871 17.1313 72.7355 17.1238C72.5882 16.6188 72.5297 16.0921 72.5625 15.5671C71.9633 15.5039 71.3578 15.542 70.7713 15.6799C69.0856 16.0785 64.0584 20.2822 65.0067 20.9439C65.9549 21.6057 69.1684 20.9439 69.5973 20.7183C69.5296 20.4476 69.492 20.2746 70.8993 20.1167C72.0883 19.9889 72.269 19.6956 72.4044 19.5076C72.7762 19.7566 73.1307 20.0305 73.4655 20.3273C73.8719 20.7634 74.045 21.3575 74.4288 21.8313C74.9105 22.4103 76.0243 22.3426 76.0318 23.403C76.0318 23.403 75.791 25.8018 72.4797 26.7945C71.4863 27.0877 70.4101 27.0351 69.4694 27.5465C69.3108 27.6578 69.1942 27.8191 69.1382 28.0045C69.0823 28.19 69.0902 28.3888 69.1609 28.5692C69.3415 28.7346 69.9134 28.8023 71.6669 28.2157C72.9989 27.7645 72.9989 27.7645 75.362 28.8023C75.1739 29.0053 75.1739 29.0053 74.2181 29.3588C74.7374 29.8175 78.7862 30.6597 79.614 30.201C79.614 30.0807 79.614 30.0807 79.3732 29.9754C78.6977 29.4454 78.0614 28.8674 77.4692 28.2458C78.4206 28.2594 79.3451 28.5638 80.1182 29.1181C80.2763 29.2234 80.3816 29.2986 80.4644 29.2761C80.916 29.1332 81.6685 27.4412 81.3073 27.0652C80.5547 26.2455 79.0496 26.3583 78.6131 25.0799C78.2293 23.9594 80.0129 23.3954 80.0279 23.3954Z" fill="#2D164E"/>
<path style="mix-blend-mode:screen" d="M75.9412 15.6198C75.2705 15.2962 74.5204 15.1735 73.7814 15.2663C73.0288 15.3942 73.2546 15.9131 73.4352 16.0635C74.0372 16.5297 75.9262 15.6348 75.9412 15.6198Z" fill="#2D164E"/>
<path style="mix-blend-mode:screen" d="M75.7382 9.59631C76.0995 9.48351 76.2124 9.46095 76.3328 9.50607C76.3352 9.52102 76.3352 9.53625 76.3328 9.55119C76.1484 9.64548 75.9541 9.71863 75.7533 9.76927C75.3124 9.88648 74.882 10.0399 74.4664 10.228C74.2482 10.3633 74.2256 10.619 74.3234 10.6641C74.4212 10.7093 74.3234 10.6641 74.9706 10.4987C75.219 10.4235 75.4824 10.4987 75.7232 10.3934C76.3252 10.1753 76.837 9.78431 77.4165 9.52863C77.7777 9.37071 78.169 9.31807 78.5303 9.14511L78.6055 9.09247C78.6055 9.09247 78.6055 9.09247 78.3271 9.01727L78.5077 8.92703C79.0044 8.69392 79.0044 8.67136 79.0194 8.62624C79.0345 8.58112 78.9065 8.62623 78.8614 8.58863C78.9366 8.48336 79.1248 8.44576 79.0872 8.26528C79.1925 8.13744 79.3656 8.09232 79.4634 7.96448H79.3581C78.3337 8.27624 77.3286 8.64786 76.3478 9.07743C76.4603 9.07753 76.5721 9.05976 76.6789 9.02479C76.4286 9.16334 76.1562 9.25748 75.8737 9.30303C75.4927 9.37905 75.1422 9.56462 74.8653 9.83695C75.1635 9.78588 75.456 9.70527 75.7382 9.59631V9.59631Z" fill="#2D164E"/>
<path style="mix-blend-mode:screen" d="M68.7995 15.2137C68.8522 15.2137 74.9555 14.5896 76.566 12.9577C77.0025 12.5216 75.9263 12.4614 75.9112 12.4614C74.5909 12.7356 73.2967 13.123 72.043 13.6195C71.5388 13.8225 71.14 13.3563 71.2453 13.2285C71.3507 13.1006 71.3733 13.1457 71.5614 13.0931C72.5473 12.8149 72.0581 12.499 71.9527 12.499C71.6971 12.5332 71.4451 12.5911 71.2002 12.672C70.9142 12.672 70.6357 12.5968 70.3422 12.6269C70.1549 12.649 69.969 12.6816 69.7853 12.7246C69.5226 12.8964 69.3078 13.1318 69.1607 13.4089C69.2906 13.4083 69.4188 13.3801 69.537 13.3262C69.8079 13.2285 70.1842 13.1006 70.2896 13.1533C70.3949 13.2059 69.9584 13.9053 69.9283 13.9053C69.6273 14.1835 69.2134 14.2888 68.9425 14.5971C68.4157 15.2213 68.6264 15.2213 68.7995 15.2137Z" fill="#2D164E"/>
<path style="mix-blend-mode:screen" d="M190.844 90.5037C190.708 88.0823 190.588 84.8412 190.339 82.4197L190.038 80.4044C189.459 78.4868 189.406 78.1484 188.27 71.3804L188.315 71.4707C185.53 62.2286 185.53 62.2286 185.478 61.7774L185.515 61.8225C184.746 59.5069 183.82 57.2458 182.746 55.0546L179.736 49.2266C178.868 48.059 177.791 47.0621 176.56 46.2863C177.802 47.047 178.882 48.0464 179.736 49.2266C178.592 47.3541 177.117 44.8199 175.898 42.9925C170.63 35.8561 170.562 35.7132 167.318 32.2239L163.856 28.7196L163.465 28.3662C163.978 28.9882 164.528 29.5783 165.113 30.1334C164.853 29.9712 164.602 29.7955 164.361 29.607C164.845 30.2597 165.42 30.8396 166.069 31.329L165.934 31.4193C163.518 29.449 161.456 27.0802 159.017 25.1401C160.237 25.8921 161.2 27.0201 162.532 27.6367C162.223 27.0652 158.506 23.8767 156.067 22.3727C155.312 21.977 154.598 21.5059 153.938 20.9665C154.048 21.0024 154.156 21.0451 154.261 21.0943C154.026 20.8947 153.775 20.7161 153.509 20.5604L153.381 20.6582C152.802 20.4003 152.257 20.0746 151.755 19.6881L152.101 19.8084C151.898 19.3422 149.761 18.3571 149.595 18.3044C149.693 18.5526 149.693 18.5526 150.054 18.9662C149.302 18.7105 148.933 17.9209 148.196 17.6577C148.331 17.9961 148.707 18.154 148.843 18.4924C148.572 19.079 148.572 19.079 148.617 19.4399C149.139 20.6802 149.745 21.8836 150.431 23.042C151.718 25.0198 151.665 25.7116 151.657 25.7793C151.409 27.6142 151.409 27.6142 150.393 28.3361C150.024 28.6068 150.032 28.7346 150.227 29.2159C150.227 29.2836 152.952 35.6004 155.45 34.4799C156.248 34.1114 155.849 32.7879 155.661 32.1487C155.864 32.2991 160.327 36.7359 161.162 38.1647C161.561 38.8264 161.915 39.4581 162.615 39.4581C162.81 38.5208 162.732 37.5472 162.389 36.6532C161.396 34.8108 161.636 34.6002 162.126 34.1415C162.126 33.6978 162.126 33.5324 160.794 32.6751C159.898 32.081 159.898 32.081 158.679 30.1183C158.212 29.3663 158.98 28.4263 158.295 27.7194C157.635 27.1095 157.019 26.4536 156.451 25.7567L156.353 25.5236L156.444 25.3882C157.106 25.6063 159.334 27.0802 159.499 27.539H159.318C161.042 31.3892 161.042 31.3892 162.675 32.9082C164.097 34.2317 166.265 34.0362 167.702 35.3447C167.465 35.2864 167.235 35.2006 167.017 35.089L166.874 35.1793C166.965 35.3522 167.077 35.5026 167.183 35.6605C166.372 35.3594 165.539 35.1205 164.692 34.9461C165.64 36.2471 166.987 37.2021 167.702 38.7061C166.769 38.7061 166.709 37.3149 165.708 37.3977L165.61 37.5556C165.61 37.5556 166.746 39.6311 166.859 39.8116C166.972 39.992 167.822 40.8719 167.747 41.308C167.175 41.2554 167.175 41.2554 167.07 41.308C166.995 41.481 166.965 41.6765 166.889 41.857L166.987 41.9848C164.361 41.7968 164.361 41.7968 164.338 42.0525L163.977 42.2781C163.363 41.9568 162.703 41.7336 162.02 41.6164L163.285 41.8344C162.771 41.4348 162.127 41.2417 161.478 41.293C161.132 41.293 161.049 41.293 160.071 40.1951C159.318 39.3754 158.506 38.1722 158.566 37.1495C158.566 36.7284 157.941 34.9311 157.467 34.8935C157.407 34.8935 156.045 34.8935 156.278 35.5477C157.16 37.2287 158.195 38.8247 159.371 40.3154C159.875 40.8944 159.898 40.9772 159.913 41.0072C159.928 41.0373 159.838 41.09 159.461 41.1652L158.581 41.308L158.325 41.669C156.933 41.6314 156.933 41.6314 156.549 41.9999C156.701 42.8128 156.925 43.6106 157.219 44.3837L156.993 44.7823C156.377 44.6846 155.747 44.7601 155.172 45.0003C155.31 45.4402 155.478 45.8698 155.676 46.2863C155.373 46.4891 155.044 46.6509 154.698 46.7675C154.687 47.0881 154.618 47.404 154.495 47.7C153.724 47.7722 152.955 47.537 152.357 47.0458C152.52 47.3285 152.699 47.6021 152.892 47.8655L152.756 48.3016C152.458 48.4289 152.151 48.5344 151.838 48.6175C151.191 48.2039 151.191 48.2039 150.137 48.1738L149.949 48.5799L150.822 49.3319L150.461 49.5875C156.745 51.3322 155.729 57.6339 155.729 57.6941C152.801 57.4835 149.979 56.6112 147.074 56.3179C147.237 56.5864 147.426 56.8383 147.639 57.0699C147.639 57.1451 147.962 64.9358 148.963 65.2366C148.692 67.643 148.692 67.643 148.64 67.8611C150.671 67.7032 151.093 67.6731 151.966 67.8611C152.305 69.2372 152.305 69.2372 152.32 69.2598L157.083 67.6806C158.4 67.5152 158.731 65.8532 158.017 64.7328C158.769 61.6045 158.814 61.5894 160.771 60.8149C160.771 58.2881 160.771 58.2881 161.012 58.1152C161.922 57.3632 162.63 58.5664 163.48 58.5739C164.233 57.1977 164.895 56.3179 166.107 57.3557C166.167 57.4083 172.812 65.0336 173.474 67.1768C173.971 68.7936 173.738 68.8236 170.931 69.2071C171.587 70.0963 172.345 70.9064 173.188 71.6211C173.429 70.8691 172.955 70.1171 173.098 69.3651L173.512 69.4177C173.866 68.8913 174.009 68.2672 174.332 67.7332C173.918 66.2744 173.918 66.2744 173.926 65.7555L174.347 65.6427L174.919 66.3947C174.776 65.7104 174.776 65.7104 172.526 63.0107L172.631 62.5745C171.57 62.1008 170.735 61.7323 167.92 55.972C168.081 55.7363 168.305 55.5511 168.568 55.4381L174.957 62.9581C174.957 62.9581 174.957 62.958 176.883 68.4627L178.908 73.095C178.946 72.7982 178.966 72.4993 178.968 72.2001C178.861 71.1213 178.646 70.0557 178.328 69.0191C177.636 65.575 177.636 65.575 177.975 65.3193C178.459 65.4505 178.907 65.6899 179.285 66.0195C179.663 66.3491 179.961 66.7603 180.157 67.2219C180.301 66.9588 180.425 66.6847 180.526 66.4022H180.977C181.369 63.2814 179.111 60.5742 179.502 57.4158C179.767 57.3379 180.051 57.3512 180.308 57.4534L180.127 57.8369C180.403 58.1897 180.749 58.4816 181.143 58.6942C181.285 59.1522 181.285 59.6424 181.143 60.1005C181.498 60.6135 181.825 61.1458 182.121 61.6947C183.626 60.8224 181.369 59.2808 181.828 58.0024C182.498 57.8595 182.58 58.0776 182.814 58.5965L182.595 59.0025C182.829 59.3785 182.829 59.3785 183.175 60.7246L182.927 61.0856C184.018 63.7702 186.486 65.8608 186.381 69.0643L186.005 69.2748C184.703 68.4025 184.77 65.5148 182.656 66.0638C182.624 66.3409 182.512 66.6025 182.332 66.8158C182.084 66.7331 181.737 66.6353 181.482 66.5752C181.553 66.8445 181.693 67.0908 181.888 67.2896C181.399 67.7032 180.744 67.455 180.225 67.7107C180.18 68.0319 180.162 68.3565 180.172 68.6808L180.571 68.8011C180.782 70.4028 181.173 73.3883 183.152 75.0502L183.461 74.7419V74.3132C184.108 74.8547 184.319 75.7495 185.064 76.2082C185.162 75.9284 185.227 75.6382 185.259 75.3434C185.465 75.5483 185.707 75.7117 185.974 75.8247C186.306 81.8933 186.351 82.8333 185.688 84.4727C184.815 84.3975 184.672 84.2095 184.394 83.3597C184.114 83.3761 183.849 83.4875 183.641 83.6756C180.737 83.465 181 79.2463 177.967 79.1636C177.403 80.1713 177.847 81.3369 177.455 82.3746L177.041 82.5401C176.417 82.0813 169.749 76.0202 169.275 75.2306C169.124 74.9825 169.328 74.5388 169.478 74.2982C169.839 73.7191 169.839 73.7191 169.561 70.1321C169.14 69.8435 168.703 69.5799 168.251 69.3425C167.664 69.7862 167.664 69.7862 165.241 69.2297C165.014 69.4559 164.814 69.7083 164.647 69.9817C161.486 68.7484 158.92 72.2377 155.781 71.1247H155.315C154.427 71.3052 154.118 71.3654 153.155 70.2073L152.974 70.087C152.832 70.194 152.699 70.3122 152.575 70.4404C151.981 71.1924 152.432 72.1926 151.823 72.9145C151.07 73.8169 149.746 73.8019 149.084 74.787C148.888 75.0802 148.978 75.5991 148.963 75.9526C148.76 79.7727 148.76 79.7727 147.736 80.269C146.74 80.7955 145.827 81.4671 145.027 82.2618C144.455 83.1793 140.233 90.5338 140.233 90.5338C140.06 92.489 141.355 94.1359 141.385 96.0459C141.385 97.6477 139.127 98.4147 139.88 100.265C140.963 103.047 142.468 105.626 143.755 108.311C144.297 109.439 148.354 113.312 149.121 113.237C152.937 112.876 156.647 111.439 160.53 111.86C160.668 111.895 160.796 111.965 160.899 112.063C161.606 112.65 161.102 113.718 161.787 114.319C162.472 114.921 163.337 114.62 164.097 114.853C164.601 116.357 164.601 116.357 163.977 117.861C170.547 119.072 174.693 120.178 177.689 121.621C174.739 120.185 170.479 119.05 163.977 117.861C162.246 121.93 162.246 121.93 162.509 123.125C162.931 124.96 163.503 127.472 161.155 132.984C160.071 135.518 158.009 137.383 156.579 139.684C155.255 141.828 155.074 144.422 153.877 146.603C149.106 155.093 148.971 155.228 148.203 156.018C147.603 156.59 147.142 157.293 146.856 158.071C149.302 158.823 152.177 156.867 153.117 156.228L156.88 153.566L161.666 149.746C162.75 148.618 163.39 147.152 164.549 146.084C165.873 144.858 167.642 144.272 168.944 143.023C172.067 140.015 174.964 134.12 175.265 133.383C176.469 130.435 180.601 125.923 181.828 124.622C183.754 122.486 186.343 116.884 186.983 114.688C186.494 114.53 186.494 114.53 185.636 114.688C185.44 114.417 185.44 114.417 185.846 110.928C185.878 109.635 185.823 108.341 185.681 107.055C185.613 103.701 186.268 100.362 185.967 97.001L185.079 86.4128C185.29 86.7437 185.29 86.7437 185.515 88.2703C185.755 88.0394 185.922 87.7443 185.997 87.4205C188.172 95.4067 185.869 103.416 186.125 111.417C187.005 111.003 187.005 111.003 187.397 111.093C189.715 106.1 189.715 106.1 189.828 105.453L189.752 105.927C189.805 105.664 189.865 105.311 189.91 105.047L189.955 104.754L190.211 102.912C190.317 102.069 190.445 101.009 190.64 98.1365C190.64 98.2869 190.64 98.4298 190.64 98.5651C190.693 95.9858 190.859 92.8725 190.844 90.5037ZM190.302 99.7608C190.129 99.3998 190.129 99.3998 190.257 96.3919C190.174 97.3469 190.174 97.3469 190.121 97.7605C189.895 91.2482 189.986 90.6541 190.121 89.8344C190.497 90.406 190.655 95.2187 190.595 97.9936C190.559 98.5887 190.46 99.1785 190.302 99.7533V99.7608Z" fill="#2D164E"/>
<path style="mix-blend-mode:screen" d="M188.413 71.2978C188.413 71.4031 188.473 71.5535 188.503 71.6587L188.94 73.5989V73.5011C189.09 74.6517 189.323 75.7571 189.549 76.9302C189.145 73.9899 188.511 71.0858 187.653 68.2447L187.148 66.6956C188.172 70.1773 188.202 70.3202 188.654 72.1626C188.548 71.8768 188.48 71.5911 188.413 71.2978Z" fill="url(#paint1_radial)"/>
<path style="mix-blend-mode:screen" d="M186.862 65.8006C186.9 65.9134 186.945 66.0262 186.99 66.1315C186.862 65.7104 186.689 65.3118 186.599 64.8756C186.649 65.011 186.697 65.1489 186.742 65.2892L185.711 62.2286V62.2662C185.663 62.1064 185.598 61.9525 185.515 61.8075C185.922 63.0107 186.418 64.5448 187.118 66.6955L186.862 65.8006Z" fill="url(#paint2_radial)"/>
<path style="mix-blend-mode:screen" d="M190.121 80.6751C189.993 79.4193 189.752 78.1785 189.519 76.9152C189.67 77.8702 189.835 79.0057 190.046 80.3743L190.121 80.6751Z" fill="url(#paint3_radial)"/>
<path style="mix-blend-mode:screen" d="M140.527 39.8191C140.53 39.844 140.53 39.8693 140.527 39.8943C140.272 40.4937 140.083 41.119 139.962 41.7592C139.88 42.248 139.91 42.5112 140.068 42.6842C140.346 43.0226 141.641 42.8797 142.589 42.2706C142.817 42.1058 143.053 41.9526 143.296 41.8118C143.59 41.6614 143.989 41.7742 144.214 41.4509C144.342 41.2704 144.29 40.8493 144.056 40.2026C143.957 39.9339 143.821 39.6806 143.65 39.4506C143.536 39.3382 143.465 39.1904 143.447 39.0317C143.429 38.873 143.466 38.713 143.552 38.5783C143.67 38.3462 143.705 38.0807 143.65 37.8263C143.556 37.535 143.362 37.2868 143.101 37.1269C142.988 37.0534 142.869 36.988 142.747 36.9314C142.446 36.7885 142.122 36.7208 141.821 36.5779C141.693 36.5314 141.578 36.4569 141.483 36.3599C141.483 36.3599 141.483 36.3599 141.422 36.3599C141.362 36.3599 139.383 36.8712 140.617 37.5555C140.705 37.6099 140.807 37.6385 140.911 37.6383C140.856 37.6816 140.795 37.717 140.73 37.7435C140.288 37.9126 139.883 38.1683 139.541 38.4955C139.443 38.5919 139.372 38.7116 139.334 38.8432C139.296 38.9748 139.292 39.114 139.323 39.2475C139.357 39.3525 139.414 39.4487 139.489 39.5292C139.564 39.6098 139.657 39.6728 139.759 39.7138C140.011 39.7756 140.268 39.8109 140.527 39.8191V39.8191Z" fill="#2D164E"/>
<path style="mix-blend-mode:screen" d="M59.1744 16.808C58.9788 16.9057 57.421 17.8081 57.3457 17.9134C57.4285 17.936 57.5113 17.936 59.1744 16.808Z" fill="url(#paint4_radial)"/>
<path style="mix-blend-mode:screen" d="M50.4218 23.3804C50.4592 23.3758 50.4952 23.363 50.5271 23.3428C51.0238 22.9969 51.4603 22.5908 51.9495 22.2299C52.845 21.6057 53.8083 21.0868 54.6964 20.4401C54.8995 20.2897 54.8996 20.2897 55.1629 19.8009V19.7483C54.8724 19.8503 54.5985 19.9948 54.3502 20.1769C54.5759 19.9814 54.5759 19.9814 54.6136 19.8235H54.5082C53.4019 20.2897 53.4019 20.2897 48.5404 24.2828C48.0608 24.631 47.6797 25.0973 47.4341 25.6364H47.4792C48.578 25.1476 49.3908 24.1475 50.4218 23.3804Z" fill="#2D164E"/>
<path style="mix-blend-mode:screen" d="M57.195 18.7707C57.5101 18.6782 57.8094 18.5387 58.083 18.3571C59.5881 17.5149 60.3407 17.184 60.3407 17.184C60.8351 17.0263 61.32 16.8405 61.7932 16.6275C62.1619 16.432 63.5542 15.4695 63.5692 15.4544C63.8401 15.2664 63.8552 15.2363 63.8853 15.1837C63.7377 15.1863 63.593 15.225 63.4639 15.2965C63.0349 15.5371 62.6737 15.868 62.2447 16.1162C62.7715 15.5973 63.3886 15.1762 63.9003 14.6122H63.8401C63.8401 14.6122 62.0867 15.5146 62.0265 15.7552C61.9662 15.9959 61.7555 16.3794 60.4235 16.6877C60.456 16.6477 60.4912 16.61 60.5288 16.5749V16.5749C60.7095 16.3794 61.3266 16.2591 61.0707 15.9733C61.0707 15.9733 57.4809 17.7029 57.4508 18.2293C58.0421 17.9505 58.6174 17.6392 59.1742 17.2968C59.0011 17.5826 58.6851 17.6728 58.4217 17.8683C58.4668 17.8683 58.4743 17.8683 58.8958 17.6427C59.1367 17.5111 59.3885 17.4004 59.6483 17.3119C58.8838 17.7749 58.0922 18.1918 57.2778 18.5602C57.0746 18.6053 57.067 18.7557 57.195 18.7707Z" fill="#2D164E"/>
<path style="mix-blend-mode:screen" d="M47.3062 27.5841C47.5621 27.6443 47.7653 27.4187 48.0061 27.4337L48.0437 27.4788C47.9309 27.7871 47.6374 27.9601 47.4868 28.2308C48.9416 27.7373 50.3065 27.011 51.5281 26.0801C51.7812 25.8404 52.0708 25.6424 52.3861 25.4936H52.4387C52.3881 25.5745 52.3452 25.6601 52.3108 25.7492C52.6423 25.8889 52.988 25.9922 53.3418 26.0576C54.1847 25.832 54.1847 25.832 55.0276 24.8769L55.0652 24.8318C54.9749 24.8318 54.9749 24.8318 54.1847 25.2379C54.3513 24.9832 54.5731 24.7692 54.8336 24.6117C55.0941 24.4542 55.3868 24.3572 55.6898 24.328C55.893 24.328 55.9382 24.328 56.0059 24.2678C56.0736 24.2076 56.4424 23.8692 56.3747 23.5158C55.9307 23.2601 55.7425 22.7638 55.9758 22.4705C56.6938 21.6324 57.3526 20.7454 57.9475 19.816C57.8601 19.778 57.7694 19.7478 57.6766 19.7257V19.6355C56.8262 20.3875 56.2392 21.3651 55.2458 21.9291C55.148 21.523 55.5694 21.3877 55.6974 21.0944L55.6221 21.0417C55.2572 21.2479 54.8774 21.4263 54.4857 21.5757C54.5986 21.3877 54.8018 21.2749 54.8996 21.0718L54.8545 21.0267C54.2976 21.1921 53.8837 21.6283 53.3493 21.8313C53.6805 21.3726 54.2223 21.1696 54.5986 20.7635C54.26 20.7635 49.8875 23.6211 49.9929 24.1475C50.0536 24.1715 50.1116 24.2017 50.166 24.2377C50.0832 24.3806 50.0757 24.3881 49.5564 24.6964C48.6834 25.2228 48.6458 25.3281 48.6533 25.4484C48.7049 25.4637 48.7598 25.4637 48.8114 25.4484C49.293 25.3507 49.6919 25.0273 50.1735 24.922C50.5122 24.8468 50.8583 24.9972 51.197 24.922C50.657 25.2961 50.056 25.5734 49.4209 25.7417C47.1181 26.4712 46.8923 27.4864 47.3062 27.5841Z" fill="#2D164E"/>
<path style="mix-blend-mode:screen" d="M66.2258 30.1259C66.2878 30.0996 66.3403 30.055 66.3763 29.9981C66.3957 29.9117 66.392 29.8217 66.3656 29.7372C66.3392 29.6528 66.291 29.5767 66.2258 29.5168C66.0828 29.3814 65.8871 29.3062 65.7517 29.1558C65.5588 28.8697 65.3449 28.5982 65.112 28.3437L64.9615 28.2459C64.7206 28.088 64.3519 28.088 64.0734 27.9376C63.795 27.7872 63.8928 27.5841 63.7197 27.4789C63.6954 27.4703 63.6688 27.4703 63.6445 27.4789C63.2173 27.892 62.834 28.3482 62.5006 28.84C62.3877 28.9979 62.2522 29.2085 62.1544 29.3664L61.2212 30.8704C61.7706 30.9155 61.7706 30.9155 61.8157 31.1937C61.8609 31.472 61.8684 31.5472 61.9211 31.5396C62.116 31.4376 62.2938 31.3056 62.4479 31.1486C63.0026 30.6037 63.7029 30.2303 64.4648 30.0733C65.0442 30.0206 65.6162 30.344 66.2258 30.1259Z" fill="#2D164E"/>
<path style="mix-blend-mode:screen" d="M146.163 39.4957C146.081 39.4957 146.088 39.5559 146.118 39.6386L146.705 39.6837C146.538 39.5879 146.354 39.5242 146.163 39.4957V39.4957Z" fill="url(#paint5_radial)"/>
<path style="mix-blend-mode:screen" d="M89.3068 45.6997C89.8637 44.9477 90.1121 44.4815 90.0594 44.2559C90.0247 44.2484 89.9888 44.2484 89.954 44.2559C89.2779 44.6648 88.6855 45.1981 88.2081 45.8276C87.4555 46.7676 86.9287 47.8655 86.1762 48.8356C85.7773 49.3394 85.2204 49.6928 84.8516 50.2192C84.7086 50.4223 84.8516 50.4824 84.8516 50.5125C84.8516 50.5426 84.9495 50.5652 87.2147 50.7456C88.3119 50.8061 89.4006 50.9723 90.4658 51.242C90.5909 51.2828 90.7193 51.313 90.8496 51.3322C91.2184 51.3322 91.6022 50.9863 91.9559 51.3322C92.1053 51.5537 92.1792 51.8174 92.1666 52.0842C92.1666 52.3324 92.2945 52.3549 92.3623 52.3474C92.7235 52.3023 93.175 51.5954 93.2202 51.0164C93.1337 49.8141 92.6369 48.678 91.8129 47.7978C91.4366 47.3917 91.4366 47.3917 90.1046 47.685C89.6982 47.7752 89.6079 47.685 89.5175 47.3541C89.3445 46.7149 89.1864 46.6021 88.9381 46.4743C88.8101 46.4066 88.8101 46.3615 88.8703 46.2336C89.0002 46.0435 89.1463 45.8648 89.3068 45.6997V45.6997Z" fill="#2D164E"/>
<path style="mix-blend-mode:screen" d="M142.182 33.9234C142.258 34.3821 141.904 34.8183 142.084 35.2845C142.227 35.3372 142.528 35.2845 143.153 34.8333C143.386 34.6604 143.582 34.51 143.74 34.5927C144.387 34.9461 143.635 35.6455 143.86 36.1493C143.981 36.5034 144.199 36.8166 144.489 37.0532C144.779 37.2898 145.13 37.4404 145.501 37.4879C145.979 37.5595 146.442 37.7094 146.871 37.9316C146.871 38.097 146.811 38.27 146.871 38.4279C147.149 38.9242 147.623 39.2701 147.894 39.789C148.03 40.3304 147.367 40.0146 146.886 39.789C146.683 39.6912 146.683 39.6912 146.096 39.6461C146.329 40.3304 147.097 40.6613 147.255 41.3983C147.337 41.7968 146.969 42.0074 146.434 42.2631C146.291 42.3307 146.081 42.436 146.156 42.5939C146.231 42.7519 146.434 42.9474 147.699 42.9098C148.233 42.9098 149.354 42.8647 149.384 43.2256C149.414 43.5866 149.159 43.5565 148.767 43.549C148.651 43.5361 148.533 43.5504 148.424 43.5909C148.314 43.6314 148.215 43.6968 148.135 43.7821C147.864 44.0303 147.819 44.4138 147.578 44.6845C147.337 44.9552 146.878 45.2184 146.577 45.5418V45.6471C146.743 45.6847 146.743 45.6847 149.166 45.3839C150.393 45.2335 151.635 45.3237 152.861 45.1507H152.906L155.014 44.4363C155.017 44.4139 155.017 44.3911 155.014 44.3687C154.577 43.9325 154.02 44.316 153.508 44.1506C153.283 43.5189 153.87 42.9399 153.629 42.3082C153.2 41.1802 152.748 41.2027 152.395 41.2178C151.582 41.2629 151.025 40.1199 151.025 40.1048V40.0522C151.078 40.0522 151.078 40.0522 151.71 40.18C152.003 40.2778 152.395 40.4207 152.365 40.2703C152.271 40.1392 152.157 40.0248 152.026 39.9319C151.032 39.1799 149.768 38.7813 148.888 37.894C148.512 37.413 148.086 36.9742 147.616 36.5855C146.969 36.1494 146.219 35.8902 145.441 35.8335V35.8335C145.975 35.3597 146.675 32.9985 145.238 32.9383C144.986 32.9357 144.734 32.9533 144.485 32.9909C143.575 33.1113 143.409 33.1338 143.401 32.8932C143.401 32.4194 144.199 31.5245 143.537 31.4869C143.537 31.4869 141.746 31.4869 141.482 32.1487C141.465 32.2178 141.465 32.2902 141.482 32.3593C141.701 32.9157 142.092 33.3519 142.182 33.9234Z" fill="#2D164E"/>
<path style="mix-blend-mode:screen" d="M24.7891 57.1075C25.0149 56.5736 25.1428 56.0096 25.3536 55.4681C25.4815 55.1448 25.632 54.8289 25.7449 54.5056L25.7825 54.3853C25.7825 54.3853 25.8804 54.0845 25.7374 54.1145H25.6696C25.188 54.5056 24.6461 56.9947 24.744 57.1225C24.7596 57.1194 24.7747 57.1143 24.7891 57.1075V57.1075Z" fill="url(#paint6_radial)"/>
<path style="mix-blend-mode:screen" d="M130.563 22.0719C130.568 22.0395 130.568 22.0066 130.563 21.9742C130.384 21.6871 130.121 21.4615 129.81 21.3274L129.615 21.2598C129.089 21.2192 128.566 21.1464 128.049 21.0417C127.688 20.8988 127.425 20.5379 126.996 20.5679C126.567 20.598 126.032 20.8913 125.543 21.0041C125.054 21.1169 124.557 21.0868 124.091 21.2447C123.79 21.35 124.008 21.7185 123.775 21.8538C123.541 21.9892 123.255 21.726 123.022 21.8538L122.894 21.9366C122.796 22.3577 123.18 22.8465 122.714 23.2225C122.187 22.8641 121.715 22.4309 121.314 21.9366C120.907 21.1846 119.192 20.6883 118.71 21.0718C118.845 21.4628 119.32 21.3801 119.53 21.6583C119.395 22.2223 118.725 22.1321 118.454 22.5306C118.783 22.6137 119.127 22.6137 119.455 22.5306C119.989 22.4329 121.668 23.0194 120.734 23.794C121.133 24.2903 121.668 23.8692 122.127 23.997C122.586 24.1249 122.608 24.3054 122.608 24.749C122.721 24.8468 122.811 24.8844 123.76 24.749C124.101 24.6989 124.446 24.6762 124.791 24.6814C125.242 24.6814 125.664 24.9145 126.115 24.937H126.303C126.858 24.8964 127.406 24.793 127.936 24.6287C129.073 24.3505 130.796 23.1247 130.713 22.7337C130.661 22.493 130.458 22.3351 130.382 22.102C130.42 22.0719 130.42 22.0719 130.563 22.0719Z" fill="#2D164E"/>
<path style="mix-blend-mode:screen" d="M79.6366 48.1738C79.1399 48.3618 80.2763 48.9258 80.502 49.016C82.0072 49.7154 82.5114 48.9559 82.5189 48.9484C82.6995 48.5498 80.1784 48.0836 79.6366 48.1738Z" fill="#2D164E"/>
<path style="mix-blend-mode:screen" d="M117.671 125.592C117.558 124.983 118.371 124.156 117.604 123.765C117.054 123.486 116.52 123.892 115.97 123.765C114.209 123.381 113.05 121.847 111.365 121.328C108.851 120.576 106.247 120.11 103.696 119.471C102.191 118.929 102.086 117.215 101.167 116.23C99.6096 115.214 98.4432 113.575 96.8176 112.643C94.6878 111.432 92.0689 111.845 89.9617 110.567C88.291 109.552 87.1697 107.837 85.3861 106.98C85.0946 106.843 84.7856 106.747 84.468 106.694C75.8135 105.393 68.9726 104.363 68.205 111.206C65.6388 109.379 59.0387 112.267 59.6483 108.01C59.8828 106.465 59.6192 104.884 58.8958 103.498C56.8864 102.483 54.8545 103.536 52.8301 103.4C53.4923 101.19 53.4923 101.19 53.0107 100.159C53.6197 98.9526 54.0168 97.6503 54.1847 96.3092C53.8009 95.9783 50.4219 93.256 49.7144 100.866C48.5555 100.791 47.8029 102.423 46.4784 101.656C43.3628 99.8736 42.2941 97.6026 41.963 96.3919C41.519 94.8879 42.7682 93.7599 42.7156 92.3687C42.7156 91.4738 41.4964 91.0452 41.8125 90.0225C42.2189 88.6989 44.6572 86.2249 45.2291 85.7812C46.2526 85.0292 50.2036 85.8865 50.2337 85.9015L50.5874 85.6082C50.2457 85.3271 49.8806 85.0755 49.4962 84.8562L49.5865 84.4201C50.3767 83.9614 56.6606 83.4124 56.6907 83.4274C59.3849 84.8638 57.7443 88.6463 60.3256 90.1428C63.3735 86.9242 58.4743 84.0742 59.0162 80.833C59.558 77.5919 62.9295 76.7046 64.7959 74.5689H64.7507L64.4723 74.2606L64.5174 73.8545L64.9088 73.7417C64.9088 73.5988 64.9088 73.4033 64.9614 73.2604L64.5776 73.1176L65.2023 66.9737C65.2474 67.8837 65.2474 70.6435 65.2474 70.651C65.5409 70.463 65.5409 70.463 65.7968 66.4248C66.0946 66.8121 66.3354 67.2401 66.5117 67.6957C67.0611 66.7481 66.8805 65.5073 67.7309 64.6877C68.9986 63.9675 70.3022 63.3124 71.6367 62.7249C71.9754 59.5515 71.9754 59.5515 73.7514 57.8896C74.0525 57.8896 74.0525 57.8896 79.2151 54.8816L79.042 55.2426C79.3374 55.3579 79.6506 55.4215 79.9676 55.4306V55.8743C76.9574 57.9949 76.9574 57.9949 76.9574 58.6115C78.9818 58.6115 85.2356 55.0245 84.0992 52.2271C83.2413 52.7986 83.2037 53.8514 82.6919 54.6259L81.0363 54.1522C81.3554 54.0496 81.6327 53.8464 81.8265 53.5731V53.6559C81.7889 53.6559 81.7738 53.6559 81.6534 53.6559C81.1775 53.7613 80.6805 53.7167 80.231 53.528C80.082 53.4737 79.9571 53.3684 79.8785 53.2306C79.8 53.0929 79.7729 52.9318 79.8021 52.776C79.8021 52.6482 79.8021 52.6331 79.8021 52.6256C79.7148 52.8061 79.6645 53.0022 79.6542 53.2024C79.6439 53.4025 79.6737 53.6027 79.7419 53.7912C78.9893 53.4227 78.8313 53.0392 78.5302 52.0917C77.7777 51.821 77.7777 51.7683 77.439 51.3848C78.5302 51.084 79.3204 50.8735 79.5537 49.7756C78.9893 49.2266 78.9893 49.2266 71.2078 54.092C76.566 48.5197 76.566 48.5197 82.0748 46.8503C83.3241 47.7076 88.9533 44.9176 89.8187 43.361C89.5403 42.6842 89.5403 42.6842 89.9467 41.6841L89.6983 41.293L88.3437 41.0073H87.9524C87.0148 41.137 86.1261 41.5046 85.3711 42.0751L85.2055 41.7066C85.657 41.0674 85.8678 40.9546 87.5385 40.338C84.3024 40.6162 81.1492 40.8869 77.6874 41.2329C80.8707 40.8945 83.6402 40.6463 87.561 40.3305C87.662 40.2921 87.7523 40.2303 87.8244 40.15C87.8997 39.9545 86.5978 38.834 84.9647 39.2626C84.5959 39.3604 84.5959 39.3604 84.4003 39.2626C84.2874 38.9468 84.5432 38.6009 84.3175 38.2926C84.0917 37.9842 83.3993 37.9842 83.0908 37.5406C82.9629 37.3676 83.0532 37.2097 83.294 36.8713C83.6552 36.3674 83.6552 36.3674 82.865 34.9687C80.8858 31.4268 80.8858 31.4268 79.915 33.2842C79.7644 33.57 80.1483 33.8708 79.915 34.1566C79.6817 34.4423 79.1172 34.1566 78.8463 34.5476C78.2292 35.3898 78.2292 35.3898 78.0561 35.4425C76.9799 35.7734 76.2274 34.8935 75.2867 34.6905C75.2105 33.737 75.4773 32.7877 76.0392 32.0134C75.4899 31.8329 74.9104 32.0961 74.361 31.8931C74.2331 31.8479 74.1578 31.7577 73.9847 31.4719C73.9245 31.3742 73.7891 31.1411 72.4344 30.7199C72.2449 30.6385 72.0361 30.6124 71.8324 30.6447C70.5906 30.9756 69.2661 30.7049 68.0695 31.2087C68.2878 32.3593 66.873 33.3895 67.8287 34.5927C67.6481 35.1567 66.9106 35.3447 66.873 35.999C66.8353 36.6532 67.6255 37.2097 67.6255 37.9466C67.6255 37.9466 67.6857 40.9546 65.9774 41.3306C65.6011 41.4209 64.7507 41.6841 64.9389 42.3157C64.8044 42.4735 64.6472 42.6104 64.4723 42.7218C64.0207 44.4364 65.1496 46.5871 63.1929 47.9407C62.5833 47.0007 61.4921 46.73 60.6417 46.1284C60.8266 45.7435 60.9226 45.322 60.9226 44.8951C60.9226 44.4682 60.8266 44.0467 60.6417 43.6618L61.1234 43.2708C61.1234 43.2031 61.1234 43.0527 61.1234 42.9775C60.958 42.9647 60.792 42.9647 60.6267 42.9775C59.8214 42.2255 58.8431 42.9023 57.9776 42.6692C57.1122 42.4361 56.6456 41.5337 55.8027 41.2404C55.6408 41.1846 55.4747 41.1419 55.306 41.1125C54.5534 40.9847 53.9815 41.5487 53.3117 41.7367C53.0784 41.5487 53.0784 41.5487 52.7849 39.7815C52.6796 39.1649 52.6796 39.1649 51.2346 39.0295C50.9035 37.157 55.4791 33.7655 57.4358 32.3142C57.21 31.7201 56.5553 31.9833 56.1865 31.69C59.9494 31.0132 59.9494 31.0132 62.1468 28.682C60.6417 28.9377 60.3708 28.9903 59.1742 28.3135C60.589 27.8022 62.4102 28.6971 63.4864 27.0427C63.362 26.9624 63.22 26.9134 63.0725 26.8998C63.0725 26.8998 63.7799 26.0425 64.525 26.5088C66.9859 25.6214 66.9859 25.6214 67.6331 25.0499C67.7873 24.9139 67.9215 24.757 68.0319 24.5836C68.2953 24.14 67.8588 23.6587 68.0997 23.2075C68.3405 22.7563 68.8522 22.8315 69.1307 22.5307C69.2535 22.3105 69.3543 22.0788 69.4317 21.8388C69.4317 21.8388 67.332 19.7032 66.6397 22.7036C65.3603 23.4556 64.4422 26.4636 62.8768 25.0424C63.0123 24.1174 64.8787 23.5384 64.0057 22.6134C63.0198 22.9894 62.621 23.982 61.891 24.6288C61.6351 24.17 62.6435 22.824 62.6586 22.824C62.3432 22.7939 62.0257 22.7939 61.7104 22.824C63.2155 20.3574 63.2155 20.3574 63.2155 20.0641L62.9822 19.8912C63.8552 18.5451 63.8552 18.5451 67.9341 16.1312C67.6824 16.0932 67.4255 16.1112 67.1815 16.1838C63.9154 16.9358 59.5053 23.0721 59.4677 23.1248L59.5806 23.3504C59.9268 23.3504 60.273 23.2752 60.6191 23.2526L60.6718 23.4632C60.2347 23.634 59.8357 23.8896 59.4978 24.2152V24.328L59.7085 24.3731C59.0086 25.5688 57.496 25.9748 56.924 27.2908C56.3897 26.7343 56.3897 26.7344 57.3906 25.674C56.8187 25.5236 56.8187 25.5236 54.9598 26.99C54.8545 27.0727 54.2073 27.4638 51.9496 27.3585C51.799 27.1404 51.8292 26.8547 51.6711 26.6065C49.8123 27.0803 49.2629 28.1631 48.1642 30.3063C47.961 29.7649 48.4351 29.3137 48.3749 28.8023C47.374 28.9603 46.5537 29.7799 45.4624 29.622C45.9215 29.1708 46.659 29.0054 46.8321 28.2684L46.659 28.2233C46.4107 28.3587 46.373 28.3812 45.6656 28.2985C45.5749 28.1729 45.4715 28.057 45.3571 27.9526C44.8529 28.0579 44.5669 28.494 44.168 28.7572C44.2497 28.605 44.3428 28.4592 44.4465 28.3211C44.1747 28.5026 43.9225 28.7118 43.6939 28.9452C43.9285 28.4481 44.2438 27.9933 44.6271 27.5991C43.4155 28.7121 43.4155 28.7121 41.2104 30.6071C41.9103 29.9379 42.6629 29.3363 43.3703 28.682C42.1296 29.6608 40.9532 30.7183 39.8483 31.8479C39.9234 31.7136 40.009 31.5854 40.1042 31.4644L36.0328 36.0366C30.7648 42.9023 30.6519 43.0377 28.319 46.9104L28.4394 46.73C26.874 50.6629 26.874 50.6629 26.6859 51.7383C26.588 52.0466 26.4526 52.4903 26.3472 52.776L26.5881 53.1671C26.1456 54.5351 25.811 55.9355 25.5871 57.3557C25.4949 57.9659 25.5704 58.5897 25.8054 59.1605C25.6785 59.1207 25.5469 59.098 25.414 59.0928C25.3517 59.0984 25.2896 59.0795 25.241 59.0402C25.241 59.0402 25.2033 59.0026 25.1506 58.807C25.098 58.6115 25.0227 58.3859 24.9475 58.3709C24.8277 58.9235 24.8277 59.4953 24.9475 60.0478C25.1281 60.672 25.5721 60.5818 25.5796 60.5818C25.6481 60.5528 25.7096 60.5097 25.7602 60.4552C25.8108 60.4008 25.8493 60.3363 25.8731 60.2659C25.9195 60.1432 25.9449 60.0135 25.9484 59.8824C25.9539 59.7797 25.9539 59.6768 25.9484 59.5741C26.2001 60.1535 26.3332 60.7774 26.3397 61.409C26.129 61.2886 25.8355 61.1382 25.5871 61.0254C22.9531 64.3041 22.035 80.7353 23.7885 83.8034C24.0143 83.8034 24.0143 83.8034 27.8298 91.6468H26.9267C27.3858 92.6093 30.7497 96.9559 30.7798 96.9935C31.0884 96.5498 31.4045 96.0836 29.8542 93.8877C29.1468 92.8876 28.3491 91.7596 27.0095 86.3001C28.6952 87.5333 28.8759 88.338 29.1016 89.3532C29.2157 90.0698 29.439 90.7647 29.7639 91.4137C30.4487 92.5116 31.269 93.4967 32.0216 94.5645C32.9698 95.9482 34.5878 96.7228 35.3856 98.2418C36.0252 99.4675 35.7242 101.107 37.0412 102.002C37.2525 102.129 37.4771 102.232 37.711 102.31C38.1132 102.502 38.5252 102.673 38.9452 102.821C40.2998 103.167 41.6996 103.385 43.0617 103.716C44.4239 104.047 45.9441 103.25 47.3137 104.032C50.452 105.814 50.452 105.814 51.5507 105.935L52.1001 106.002C57.0294 106.687 59.0689 112.77 64.4648 112.597C66.8654 108.597 68.348 113.395 68.8748 115.643C69.0404 116.35 69.0404 116.35 67.6857 119.313C67.6857 119.365 66.3612 124.697 66.9332 125.697C67.0235 125.863 67.1364 126.081 67.2417 126.239C69.0103 128.863 76.2725 136.015 76.3327 136.09C78.1088 137.594 80.5095 137.97 82.3533 139.308C83.7756 140.331 84.8443 142.316 85.3635 144.963C85.3635 145.084 88.1706 157.559 93.0172 164.372C99.1656 173.013 105.111 172.058 105.164 172.043C99.4366 169.095 99.4366 169.095 99.9784 166.674C99.1807 165.824 99.1807 165.824 97.6831 161.695C97.9164 161.62 97.9164 161.62 98.9925 161.658C98.9925 161.545 98.9925 161.545 97.6831 159.74C98.684 158.845 98.684 158.845 98.6162 158.138L98.8646 157.98C100.641 158.522 101.235 157.056 100.776 156.386L100.257 155.634C104.298 155.521 106.022 145.753 106.029 145.655C106.656 144.614 107.62 143.818 108.761 143.399C110.198 142.805 110.213 141.143 111.229 140.196C111.385 140.041 111.576 139.926 111.785 139.861C111.995 139.796 112.217 139.781 112.433 139.82C113.028 139.895 113.073 139.902 113.186 139.346C113.352 138.12 113.239 136.887 113.299 135.661C113.299 134.977 112.93 134.27 113.382 133.601C113.833 132.931 114.134 132.54 113.735 132.029C113.658 131.922 113.599 131.803 113.562 131.676C116.949 130.442 118.145 126.78 118.153 126.75C118.158 126.705 118.158 126.66 118.153 126.615C118.078 126.291 117.747 125.998 117.671 125.592ZM32.8569 49.2116C34.0535 48.8205 35.3178 48.4596 36.6198 48.0911C35.3178 48.4445 34.061 48.8205 32.8569 49.2116ZM71.2379 118.929C72.743 118.734 74.3234 118.546 75.9489 118.365L71.2379 118.929ZM105.51 140.331C105.45 139.737 105.246 137.789 104.938 134.353C105.126 136.361 105.314 138.361 105.525 140.459C105.502 140.414 105.495 140.369 105.487 140.331H105.51ZM103.854 121.629C103.854 121.742 103.854 121.847 103.854 121.96C103.854 121.847 103.854 121.734 103.854 121.629Z" fill="url(#paint7_linear)"/>
<g style="mix-blend-mode:color-dodge" opacity="0.6">
<path d="M197.271 114.891L150.89 185.985L150.386 185.737L196.774 114.643L197.271 114.891Z" fill="#7255A1"/>
</g>
<path d="M197.271 114.891L150.89 185.985L150.386 185.737L196.774 114.643L197.271 114.891Z" fill="#7255A1"/>
<path d="M94.4248 30.8401L94.5904 31.3439L1.33227 65.5673L1.15918 65.071L94.4248 30.8401Z" fill="#7255A1"/>
<path d="M1.5278 65.214L35.3858 157.687L34.8289 157.905L0.963379 65.4321L1.5278 65.214Z" fill="#7255A1"/>
<path d="M129.946 124.426L150.92 185.759L150.355 185.962L129.381 124.629L129.946 124.426Z" fill="#7255A1"/>
<path d="M94.7859 30.983L129.938 124.419L129.381 124.637L94.229 31.2011L94.7859 30.983Z" fill="#7255A2"/>
<g style="mix-blend-mode:color-dodge" opacity="0.6">
<path d="M197.007 114.5L197.037 115.034L129.675 124.795L129.645 124.261L197.007 114.5Z" fill="#7255A1"/>
</g>
<path d="M197.007 114.5L197.037 115.034L129.675 124.795L129.645 124.261L197.007 114.5Z" fill="#7255A1"/>
<path d="M129.584 124.276L129.75 124.78L35.19 158.048L35.0244 157.544L129.584 124.276Z" fill="#7255A1"/>
<path d="M94.3578 30.7569L51.2749 49.9691L51.4896 50.4498L94.5725 31.2376L94.3578 30.7569Z" fill="#7255A1"/>
<path d="M51.6414 50.1439L35.3934 157.807L34.814 157.785L51.0544 50.1213L51.6414 50.1439Z" fill="#7255A1"/>
<path d="M97.4574 137.955L96.923 138.218L51.0767 50.2642L51.611 49.9935L97.4574 137.955Z" fill="#7255A1"/>
<path d="M129.562 124.283L129.765 124.772L97.2919 138.323L97.0962 137.842L129.562 124.283Z" fill="#7255A1"/>
<path d="M150.852 185.661L150.423 186.06L96.9761 138.286L97.4126 137.88L150.852 185.661Z" fill="#7255A1"/>
<path d="M94.8009 31.0582L97.4875 138.052L96.9005 138.113L94.2139 31.1259L94.8009 31.0582Z" fill="#7255A1"/>
<g style="mix-blend-mode:color-dodge" opacity="0.6">
<path d="M196.977 114.507L197.067 115.026L97.2392 138.346L97.1489 137.827L196.977 114.507Z" fill="#7255A1"/>
</g>
<path d="M196.977 114.507L197.067 115.026L97.2392 138.346L97.1489 137.827L196.977 114.507Z" fill="#7255A1"/>
<path d="M97.1265 137.834L97.262 138.338L35.1752 158.048L35.0322 157.544L97.1265 137.834Z" fill="#7255A1"/>
<path d="M97.4051 137.887L96.9836 138.285L64.2695 109.747L64.6985 109.349L97.4051 137.887Z" fill="#7255A1"/>
<path d="M129.758 124.268L129.57 124.787L64.3896 109.807L64.5853 109.289L129.758 124.268Z" fill="#7255A1"/>
<path d="M64.6757 109.326L64.2919 109.77L1.05371 65.5448L1.43752 65.1011L64.6757 109.326Z" fill="#7255A1"/>
<path d="M94.7858 31.156L64.7584 109.612L64.209 109.484L94.2289 31.0282L94.7858 31.156Z" fill="#7255A1"/>
<path d="M64.736 109.657L35.3558 157.913L34.8516 157.687L64.2318 109.431L64.736 109.657Z" fill="#7255A1"/>
<path d="M168.937 84.6757L169.034 85.1945L64.5329 109.807L64.4351 109.289L168.937 84.6757Z" fill="#7255A1"/>
<path d="M169.155 85.1419L97.3672 138.286L97.021 137.879L168.808 84.7358L169.155 85.1419Z" fill="#7255A1"/>
<path d="M169.192 85.1118L129.87 124.697L129.457 124.359L168.771 84.7659L169.192 85.1118Z" fill="#7255A1"/>
<path d="M169.275 84.9539L150.928 185.879L150.348 185.842L168.696 84.9163L169.275 84.9539Z" fill="#7255A1"/>
<path d="M169.177 84.7207L168.786 85.1569L94.3115 31.3063L94.7029 30.8777L169.177 84.7207Z" fill="#7255A1"/>
<g style="mix-blend-mode:color-dodge" opacity="0.6">
<path d="M197.256 114.575L196.789 114.951L168.756 85.1269L169.215 84.7509L197.256 114.575Z" fill="#7255A1"/>
</g>
<path d="M197.256 114.575L196.789 114.951L168.756 85.1269L169.215 84.7509L197.256 114.575Z" fill="#7255A1"/>
<path d="M169.26 84.811L168.711 85.0591L131.105 1.91076L131.654 1.6626L169.26 84.811Z" fill="#7255A1"/>
<path d="M131.519 2.00862L51.4906 50.3545L51.2046 49.9109L131.233 1.56494L131.519 2.00862Z" fill="#7255A1"/>
<path d="M131.564 1.98596L94.6884 31.2913L94.3271 30.8927L131.203 1.5874L131.564 1.98596Z" fill="#7255A1"/>
<path d="M64.7808 109.499L70.7939 180.503L70.2069 180.585L64.1938 109.597L64.7808 109.499Z" fill="#7255A1"/>
<path d="M97.4424 138.203L70.7489 180.661L70.2446 180.428L96.9382 137.97L97.4424 138.203Z" fill="#7255A1"/>
<path d="M129.863 124.705L70.6962 180.721L70.2974 180.367L129.457 124.351L129.863 124.705Z" fill="#7255A1"/>
<path d="M150.686 185.594L150.589 186.135L70.4478 180.811L70.5456 180.277L150.686 185.594Z" fill="#7255A1"/>
<path d="M70.6814 180.322L70.3127 180.766L34.9194 158.018L35.2882 157.574L70.6814 180.322Z" fill="#7255A1"/>
<g style="mix-blend-mode:color-dodge" opacity="0.6">
<path d="M211.208 63.1159L210.809 63.5445L131.172 2.00103L131.579 1.57239L211.208 63.1159Z" fill="#7255A1"/>
</g>
<g style="mix-blend-mode:color-dodge" opacity="0.6">
<path d="M211.133 63.5671L169.11 85.172L168.861 84.7057L210.885 63.1008L211.133 63.5671Z" fill="#7255A1"/>
</g>
<g style="mix-blend-mode:color-dodge" opacity="0.6">
<path d="M211.185 63.5369L129.841 124.735L129.487 124.328L210.839 63.1309L211.185 63.5369Z" fill="#7255A1"/>
</g>
<g style="mix-blend-mode:color-dodge" opacity="0.6">
<path d="M211.291 63.3715L197.308 114.808L196.736 114.725L210.727 63.2888L211.291 63.3715Z" fill="#7255A1"/>
</g>
<g style="mix-blend-mode:color-dodge" opacity="0.6">
<path d="M211.291 63.3715L197.308 114.808L196.736 114.725L210.727 63.2888L211.291 63.3715Z" fill="#7255A1"/>
</g>
<path d="M211.208 63.1159L210.809 63.5445L131.172 2.00103L131.579 1.57239L211.208 63.1159Z" fill="#7255A1"/>
<path d="M211.133 63.5671L169.11 85.172L168.861 84.7057L210.885 63.1008L211.133 63.5671Z" fill="#7255A1"/>
<path d="M211.185 63.5369L129.841 124.735L129.487 124.328L210.839 63.1309L211.185 63.5369Z" fill="#7255A1"/>
<g style="mix-blend-mode:color-dodge" opacity="0.6">
<path d="M211.291 63.3715L197.308 114.808L196.736 114.725L210.727 63.2888L211.291 63.3715Z" fill="#7255A1"/>
</g>
<path d="M211.291 63.3715L197.308 114.808L196.736 114.725L210.727 63.2888L211.291 63.3715Z" fill="#7255A1"/>
<g style="mix-blend-mode:color-dodge" opacity="0.6">
<path d="M212.781 63.0557L212.728 63.5971H210.982L211.035 63.0632L212.781 63.0557Z" fill="#7255A1"/>
</g>
<path d="M131.361 1.51978L131.398 2.05369L43.0393 15.71L42.9941 15.176L131.361 1.51978Z" fill="#7255A1"/>
<path d="M43.3104 15.364L64.7737 109.469L64.1942 109.627L42.731 15.5219L43.3104 15.364Z" fill="#7255A1"/>
<path d="M43.3029 15.364L51.6338 50.0461L51.0619 50.2116L42.731 15.5219L43.3029 15.364Z" fill="#6E5D84"/>
<path d="M43.2425 15.5971L1.47498 65.4771L1.02344 65.1688L42.7909 15.2888L43.2425 15.5971Z" fill="#7255A1"/>
<path d="M94.6202 30.8402L94.3945 31.3515L42.9038 15.7025L43.1371 15.1836L94.6202 30.8402Z" fill="#7255A1"/>
<path d="M196.571 113.748C196.778 113.685 197 113.683 197.208 113.743C197.417 113.803 197.604 113.922 197.746 114.086C197.888 114.25 197.979 114.452 198.009 114.666C198.039 114.881 198.005 115.1 197.913 115.296C197.821 115.492 197.673 115.658 197.489 115.772C197.304 115.886 197.091 115.944 196.874 115.94C196.657 115.935 196.446 115.868 196.267 115.745C196.087 115.623 195.947 115.452 195.864 115.252C195.765 114.958 195.784 114.638 195.916 114.358C196.047 114.078 196.282 113.86 196.571 113.748Z" fill="#9880B8"/>
<path d="M151.085 186.878C151.727 186.594 152.047 185.909 151.798 185.346C151.55 184.784 150.828 184.558 150.185 184.841C149.542 185.125 149.223 185.81 149.471 186.373C149.72 186.935 150.442 187.161 151.085 186.878Z" fill="#9880B8"/>
<path d="M94.0709 30.0731C94.2785 30.0099 94.5 30.0082 94.7085 30.0682C94.917 30.1282 95.1036 30.2474 95.2457 30.4114C95.3877 30.5753 95.4792 30.7769 95.5088 30.9917C95.5385 31.2065 95.5052 31.4253 95.4129 31.6215C95.3206 31.8177 95.1733 31.983 94.9888 32.0972C94.8044 32.2115 94.5907 32.2698 94.3738 32.2651C94.1568 32.2604 93.9459 32.1929 93.7666 32.0708C93.5872 31.9487 93.4472 31.7772 93.3635 31.5771C93.2652 31.2837 93.2839 30.9636 93.4156 30.6835C93.5474 30.4034 93.7821 30.1848 94.0709 30.0731V30.0731Z" fill="#9880B8"/>
<path d="M1.69432 66.3373C2.3373 66.0548 2.65778 65.3696 2.41014 64.8069C2.16249 64.2443 1.4405 64.0172 0.797518 64.2998C0.154539 64.5823 -0.165942 65.2675 0.0817029 65.8302C0.329348 66.3928 1.05134 66.6199 1.69432 66.3373Z" fill="#9880B8"/>
<path d="M35.5609 158.811C36.2036 158.528 36.5235 157.843 36.2754 157.28C36.0272 156.718 35.305 156.492 34.6623 156.775C34.0196 157.058 33.6997 157.743 33.9478 158.306C34.196 158.868 34.9182 159.095 35.5609 158.811Z" fill="#9880B8"/>
<path d="M130.113 125.546C130.755 125.263 131.075 124.577 130.827 124.015C130.578 123.453 129.856 123.226 129.213 123.51C128.571 123.793 128.251 124.479 128.499 125.041C128.748 125.603 129.47 125.83 130.113 125.546Z" fill="#9880B8"/>
<path d="M51.7963 51.1439C52.4389 50.8605 52.7586 50.175 52.5102 49.6126C52.2619 49.0502 51.5396 48.8241 50.897 49.1074C50.2544 49.3908 49.9347 50.0764 50.183 50.6387C50.4314 51.2011 51.1537 51.4272 51.7963 51.1439Z" fill="#9880B8"/>
<path d="M97.6473 139.096C98.2901 138.813 98.6102 138.128 98.3623 137.565C98.1144 137.003 97.3922 136.776 96.7494 137.059C96.1066 137.342 95.7864 138.027 96.0344 138.59C96.2823 139.152 97.0044 139.379 97.6473 139.096Z" fill="#9880B8"/>
<path d="M64.943 110.561C65.5856 110.277 65.9051 109.592 65.6567 109.029C65.4083 108.467 64.686 108.241 64.0434 108.525C63.4008 108.808 63.0813 109.494 63.3297 110.056C63.5781 110.618 64.3005 110.844 64.943 110.561Z" fill="#9880B8"/>
<path d="M168.53 83.9162C168.737 83.8529 168.959 83.8512 169.167 83.9112C169.376 83.9713 169.563 84.0905 169.705 84.2544C169.847 84.4183 169.938 84.6199 169.968 84.8347C169.997 85.0495 169.964 85.2683 169.872 85.4645C169.78 85.6608 169.632 85.826 169.448 85.9403C169.263 86.0545 169.05 86.1128 168.833 86.1081C168.616 86.1034 168.405 86.0359 168.226 85.9138C168.046 85.7917 167.906 85.6202 167.822 85.4202C167.722 85.1267 167.74 84.8059 167.872 84.5253C168.004 84.2447 168.24 84.0263 168.53 83.9162Z" fill="#9880B8"/>
<path d="M131.834 2.79942C132.476 2.51573 132.795 1.82998 132.547 1.26776C132.298 0.705536 131.576 0.479741 130.933 0.763431C130.291 1.04712 129.972 1.73287 130.22 2.2951C130.469 2.85732 131.191 3.08311 131.834 2.79942Z" fill="#9880B8"/>
<path d="M70.0492 179.525C70.2586 179.461 70.4821 179.459 70.6925 179.52C70.9029 179.58 71.0911 179.701 71.2342 179.866C71.3773 180.032 71.4691 180.236 71.4985 180.452C71.5278 180.669 71.4934 180.89 71.3995 181.088C71.3055 181.285 71.1561 181.451 70.9693 181.566C70.7826 181.68 70.5667 181.737 70.3478 181.731C70.1289 181.725 69.9166 181.655 69.7366 181.531C69.5567 181.406 69.4169 181.232 69.3343 181.029C69.2345 180.735 69.2533 180.413 69.3867 180.132C69.5202 179.851 69.7578 179.634 70.0492 179.525V179.525Z" fill="#9880B8"/>
<path d="M210.561 62.3112C210.769 62.2493 210.99 62.2489 211.198 62.3101C211.406 62.3713 211.592 62.4914 211.733 62.6559C211.874 62.8203 211.964 63.0222 211.993 63.2369C212.022 63.4516 211.987 63.6701 211.894 63.8657C211.801 64.0614 211.653 64.226 211.469 64.3394C211.284 64.4529 211.07 64.5105 210.854 64.5051C210.637 64.4998 210.426 64.4318 210.248 64.3093C210.069 64.1869 209.929 64.0153 209.846 63.8152C209.746 63.5209 209.765 63.1992 209.898 62.9185C210.032 62.6377 210.27 62.4199 210.561 62.3112V62.3112Z" fill="#9880B8"/>
<path d="M43.4684 16.4642C44.111 16.1807 44.4305 15.4951 44.1821 14.9328C43.9337 14.3705 43.2114 14.1444 42.5688 14.4279C41.9262 14.7114 41.6067 15.397 41.8551 15.9593C42.1035 16.5216 42.8258 16.7477 43.4684 16.4642Z" fill="#9880B8"/>
</g>
<defs>
<radialGradient id="paint0_radial" cx="0" cy="0" r="1" gradientUnits="userSpaceOnUse" gradientTransform="translate(104 91) rotate(90) scale(87)">
<stop stop-color="#4C2F75"/>
<stop offset="0.416667" stop-color="#331861"/>
<stop offset="1" stop-color="#2E1454"/>
</radialGradient>
<radialGradient id="paint1_radial" cx="0" cy="0" r="1" gradientUnits="userSpaceOnUse" gradientTransform="translate(518.204 1330.17) scale(274.664 1170.95)">
<stop stop-color="#347E74"/>
<stop offset="0.17" stop-color="#2B7370"/>
<stop offset="0.46" stop-color="#145764"/>
<stop offset="0.52" stop-color="#0F5161"/>
<stop offset="0.87" stop-color="#0F1461"/>
<stop offset="1" stop-color="#0F2461"/>
</radialGradient>
<radialGradient id="paint2_radial" cx="0" cy="0" r="1" gradientUnits="userSpaceOnUse" gradientTransform="translate(406.596 665.229) scale(183.379 559.186)">
<stop stop-color="#347E74"/>
<stop offset="0.17" stop-color="#2B7370"/>
<stop offset="0.46" stop-color="#145764"/>
<stop offset="0.52" stop-color="#0F5161"/>
<stop offset="0.87" stop-color="#0F1461"/>
<stop offset="1" stop-color="#0F2461"/>
</radialGradient>
<radialGradient id="paint3_radial" cx="0" cy="0" r="1" gradientUnits="userSpaceOnUse" gradientTransform="translate(272.554 541.085) scale(68.8686 430.104)">
<stop stop-color="#347E74"/>
<stop offset="0.17" stop-color="#2B7370"/>
<stop offset="0.46" stop-color="#145764"/>
<stop offset="0.52" stop-color="#0F5161"/>
<stop offset="0.87" stop-color="#0F1461"/>
<stop offset="1" stop-color="#0F2461"/>
</radialGradient>
<radialGradient id="paint4_radial" cx="0" cy="0" r="1" gradientUnits="userSpaceOnUse" gradientTransform="translate(309.547 153.888) scale(209.189 127.051)">
<stop stop-color="#347E74"/>
<stop offset="0.17" stop-color="#2B7370"/>
<stop offset="0.46" stop-color="#145764"/>
<stop offset="0.52" stop-color="#0F5161"/>
<stop offset="0.87" stop-color="#0F1461"/>
<stop offset="1" stop-color="#0F2461"/>
</radialGradient>
<radialGradient id="paint5_radial" cx="0" cy="0" r="1" gradientUnits="userSpaceOnUse" gradientTransform="translate(229.93 62.7123) scale(69.5884 21.5189)">
<stop stop-color="#347E74"/>
<stop offset="0.17" stop-color="#2B7370"/>
<stop offset="0.46" stop-color="#145764"/>
<stop offset="0.52" stop-color="#0F5161"/>
<stop offset="0.87" stop-color="#0F1461"/>
<stop offset="1" stop-color="#0F2461"/>
</radialGradient>
<radialGradient id="paint6_radial" cx="0" cy="0" r="1" gradientUnits="userSpaceOnUse" gradientTransform="translate(174.088 425.68) scale(123.911 344.477)">
<stop stop-color="#347E74"/>
<stop offset="0.17" stop-color="#2B7370"/>
<stop offset="0.46" stop-color="#145764"/>
<stop offset="0.52" stop-color="#0F5161"/>
<stop offset="0.87" stop-color="#0F1461"/>
<stop offset="1" stop-color="#0F2461"/>
</radialGradient>
<linearGradient id="paint7_linear" x1="2260.75" y1="19270.5" x2="24060.1" y2="19270.5" gradientUnits="userSpaceOnUse">
<stop stop-color="#2D164E"/>
</linearGradient>
<clipPath id="clip0">
<rect width="213" height="187" fill="white"/>
</clipPath>
</defs>
</svg>
