<svg width="70" height="70" viewBox="0 0 70 70" fill="none" xmlns="http://www.w3.org/2000/svg">
<g clip-path="url(#clip0)">
<path d="M64.466 10.8219L55.4249 7.46575C54.7125 7.20548 53.9317 7.56164 53.6714 8.27397C53.4112 8.9863 53.7673 9.76712 54.4797 10.0274L62.6303 13.0411V29.4521C62.6303 46.8356 51.5482 61.9589 35.0139 67.2055C18.466 61.9452 7.38377 46.8356 7.38377 29.4521V13.0548L35.0002 2.82192L42.918 5.75342C43.6303 6.0137 44.4112 5.65753 44.6714 4.94521C44.9317 4.23288 44.5756 3.45205 43.8632 3.19178L35.4797 0.0821918C35.1783 -0.0273973 34.8358 -0.0273973 34.5345 0.0821918L5.53445 10.8219C5.00021 11.0274 4.64404 11.5342 4.64404 12.1096V29.4521C4.64404 38.589 7.52076 47.2877 12.9454 54.6301C18.3701 61.9726 25.8632 67.274 34.5892 69.9452C34.7262 69.9863 34.8495 70 34.9865 70C35.1235 70 35.2605 69.9863 35.3838 69.9452C44.1098 67.274 51.6029 61.9726 57.0276 54.6301C62.4523 47.2877 65.329 38.5753 65.329 29.4521V12.1096C65.3564 11.5342 65.0002 11.0274 64.466 10.8219Z" fill="#FA4978"/>
<path d="M34.5069 6.95892L12.0823 15.6849C11.5617 15.8904 11.2056 16.3973 11.2056 16.9589V29.4521C11.2056 36.8493 13.411 43.9452 17.6028 49.9452C21.7672 55.9315 27.6302 60.4384 34.5206 63C34.6713 63.0548 34.8357 63.0822 35.0001 63.0822C35.1645 63.0822 35.3152 63.0548 35.4795 63C42.37 60.4521 48.233 55.9315 52.3974 49.9452C56.5754 43.9315 58.7946 36.8493 58.7946 29.4521V16.9589C58.7946 16.3973 58.4521 15.8904 57.9179 15.6849L35.4932 6.95892C35.1782 6.83563 34.822 6.83563 34.5069 6.95892ZM56.0549 29.4521C56.0549 43.2603 47.8083 55.3014 35.0001 60.2603C22.1919 55.2877 13.9453 43.2603 13.9453 29.4521V17.8904L35.0001 9.69865L56.0549 17.8904V29.4521Z" fill="#FA4978"/>
<path d="M27.0686 23.2192V26.0137H26.9179C24.5891 26.0137 22.6987 27.9042 22.6987 30.2329V43.6028C22.6987 45.9315 24.5891 47.822 26.9179 47.822H43.0823C45.411 47.822 47.3015 45.9315 47.3015 43.6028V30.2329C47.3015 27.9042 45.411 26.0137 43.0823 26.0137H42.9316V23.2192C42.9316 18.8494 39.37 15.2877 35.0001 15.2877C30.6302 15.2877 27.0686 18.8494 27.0686 23.2192ZM44.5754 30.2329V43.6028C44.5754 44.4247 43.9042 45.0959 43.0823 45.0959H26.9179C26.096 45.0959 25.4248 44.4247 25.4248 43.6028V30.2329C25.4248 29.411 26.096 28.7398 26.9179 28.7398H43.0823C43.9042 28.7535 44.5754 29.411 44.5754 30.2329ZM40.1919 23.2192V26.0137H29.7946V23.2192C29.7946 20.3562 32.1234 18.0274 34.9864 18.0274C37.8494 18.0274 40.1919 20.3562 40.1919 23.2192Z" fill="#FC5E3E"/>
<path d="M35.0002 31.4384C32.7399 31.4384 30.9043 33.274 30.9043 35.5343C30.9043 37.3151 32.0413 38.8356 33.644 39.3973V40.4658C33.644 41.2192 34.2605 41.8356 35.0139 41.8356C35.7673 41.8356 36.3837 41.2192 36.3837 40.4658V39.3973C37.9728 38.8356 39.1235 37.3151 39.1235 35.5343C39.0961 33.2877 37.2605 31.4384 35.0002 31.4384ZM35.0002 36.9178C34.2468 36.9178 33.6303 36.3014 33.6303 35.548C33.6303 34.7945 34.2468 34.1781 35.0002 34.1781C35.7536 34.1781 36.37 34.7945 36.37 35.548C36.37 36.3014 35.7536 36.9178 35.0002 36.9178ZM49.1646 7.98631C49.5207 7.98631 49.8769 7.83562 50.1372 7.58905C50.3974 7.32877 50.5344 6.98631 50.5344 6.61645C50.5344 6.26028 50.3837 5.90412 50.1372 5.64384C49.8769 5.38357 49.5344 5.24658 49.1646 5.24658C48.8084 5.24658 48.4522 5.39727 48.192 5.64384C47.9317 5.90412 47.7947 6.24658 47.7947 6.61645C47.7947 6.97261 47.9454 7.32877 48.192 7.58905C48.4522 7.83562 48.8084 7.98631 49.1646 7.98631Z" fill="#FC5E3E"/>
</g>
<defs>
<clipPath id="clip0">
<rect width="70" height="70" fill="white"/>
</clipPath>
</defs>
</svg>
