<svg width="71" height="70" viewBox="0 0 71 70" fill="none" xmlns="http://www.w3.org/2000/svg">
<g clip-path="url(#clip0)">
<path d="M32.2463 15.9415C31.6249 15.504 30.7687 15.6407 30.3267 16.2559C29.8848 16.8712 30.0229 17.7188 30.6444 18.1563C32.9644 19.7969 34.3454 22.4493 34.3454 25.2657C34.3454 30.0782 30.3958 33.9883 25.5347 33.9883C20.6736 33.9883 16.7101 30.0782 16.7101 25.2657C16.7101 22.4493 18.0911 19.7969 20.4112 18.1563C21.0326 17.7188 21.1707 16.8575 20.7288 16.2559C20.2869 15.6407 19.4169 15.504 18.8092 15.9415C15.771 18.088 13.9619 21.5743 13.9619 25.2794C13.9619 31.5958 19.1545 36.7364 25.5347 36.7364C31.9149 36.7364 37.1074 31.5958 37.1074 25.2794C37.1074 21.5743 35.2845 18.088 32.2463 15.9415ZM54.7842 47.2501C51.0003 47.2501 47.9206 50.2989 47.9206 54.045C47.9206 57.7911 51.0003 60.8399 54.7842 60.8399C58.5681 60.8399 61.6478 57.7911 61.6478 54.045C61.6478 50.2989 58.5681 47.2501 54.7842 47.2501ZM54.7842 58.1192C52.5194 58.1192 50.6826 56.3008 50.6826 54.0587C50.6826 51.8165 52.5194 49.9981 54.7842 49.9981C57.049 49.9981 58.8858 51.8165 58.8858 54.0587C58.8858 56.3008 57.049 58.1192 54.7842 58.1192Z" fill="#FC5E3E"/>
<path d="M70.5275 49.1504L66.9508 43.0254C66.5641 42.3691 65.7217 42.1504 65.0588 42.5195L63.4154 43.4629C62.3106 42.5879 61.0677 41.877 59.742 41.3574V39.4707C59.742 38.7188 59.1205 38.1035 58.361 38.1035H51.2074C50.4478 38.1035 49.8264 38.7188 49.8264 39.4707V41.3574C48.5006 41.8633 47.2577 42.5742 46.1529 43.4629L44.5095 42.5195C44.4405 42.4785 44.3714 42.4512 44.3024 42.4238L46.6777 40.0586C47.2163 39.5254 47.2163 38.6641 46.6777 38.1309L44.7443 36.2168C45.711 34.5625 46.4429 32.8125 46.9401 30.9805H49.6745C50.434 30.9805 51.0555 30.3652 51.0555 29.6133V20.918C51.0555 20.166 50.434 19.5508 49.6745 19.5508H46.9401C46.4429 17.7188 45.711 15.9551 44.7443 14.3145L46.6777 12.4004C46.9401 12.1406 47.0782 11.7988 47.0782 11.4297C47.0782 11.0605 46.9263 10.7188 46.6777 10.459L40.4632 4.32031C39.9246 3.78711 39.0546 3.78711 38.516 4.32031L36.5964 6.2207C34.9254 5.26367 33.1577 4.53906 31.3072 4.04688V1.36719C31.3072 0.615234 30.6858 0 29.9262 0H21.1431C20.3835 0 19.7621 0.615234 19.7621 1.36719V4.06055C17.9115 4.55273 16.1301 5.27734 14.4729 6.23438L12.5395 4.32031C12.0009 3.78711 11.1308 3.78711 10.5922 4.32031L4.37776 10.459C4.11537 10.7188 3.97727 11.0605 3.97727 11.4297C3.97727 11.7988 4.12918 12.1406 4.37776 12.4004L6.29735 14.3008C5.33065 15.9551 4.59872 17.7051 4.10156 19.5371H1.381C0.621449 19.5371 0 20.1523 0 20.9043V29.5996C0 29.9688 0.15191 30.3105 0.400489 30.5703C0.662879 30.8301 1.00813 30.9668 1.381 30.9668H4.11537C4.61253 32.7988 5.34446 34.5625 6.31116 36.2031L4.37776 38.1172C3.83917 38.6504 3.83917 39.5117 4.37776 40.0449L10.5784 46.1973C10.8408 46.457 11.1861 46.5938 11.5589 46.5938C11.9318 46.5938 12.2771 46.4434 12.5395 46.1973L14.4729 44.2832C16.1439 45.2402 17.9115 45.9648 19.7621 46.457V49.1641C19.7621 49.916 20.3835 50.5312 21.1431 50.5312H29.9262C30.6858 50.5312 31.3072 49.916 31.3072 49.1641V46.457C33.1577 45.9648 34.9392 45.2402 36.5964 44.2832L38.5298 46.1973C38.7922 46.457 39.1375 46.5938 39.5103 46.5938C39.8832 46.5938 40.2285 46.4434 40.4908 46.1973L41.1675 45.5273L39.0546 49.1367C38.6679 49.793 38.9027 50.627 39.5656 51.0098L41.209 51.9531C41.0985 52.6504 41.0432 53.3477 41.0432 54.0449C41.0432 54.7422 41.0985 55.4531 41.209 56.1367L39.5656 57.0801C39.2479 57.2578 39.0132 57.5586 38.9165 57.9141C38.8198 58.2695 38.8751 58.6387 39.0546 58.9531L42.6314 65.0781C42.8109 65.3926 43.1147 65.625 43.4738 65.7207C43.8329 65.8164 44.2057 65.7617 44.5234 65.584L46.1667 64.6406C47.2715 65.5156 48.5144 66.2266 49.8402 66.7461V68.6328C49.8402 69.3848 50.4616 70 51.2212 70H58.3748C59.1343 70 59.7558 69.3848 59.7558 68.6328V66.7461C61.0815 66.2402 62.3244 65.5293 63.4292 64.6406L65.0726 65.584C65.7355 65.9668 66.5779 65.7344 66.9646 65.0781L70.5414 58.9531C70.7209 58.6387 70.7761 58.2695 70.6795 57.9141C70.5828 57.5586 70.348 57.2715 70.0304 57.0801L68.387 56.1367C68.4975 55.4395 68.5527 54.7422 68.5527 54.0449C68.5527 53.3477 68.4975 52.6367 68.387 51.9531L70.0304 51.0098C70.6795 50.6406 70.9004 49.8066 70.5275 49.1504ZM39.4965 43.2988L37.7703 41.5898C37.3146 41.1387 36.5964 41.0566 36.044 41.4121C34.0692 42.6699 31.9149 43.5586 29.6224 44.0508C28.9871 44.1875 28.5314 44.748 28.5314 45.3906V47.8105H22.5103V45.3906C22.5103 44.748 22.0545 44.1875 21.4193 44.0508C19.1268 43.5586 16.9725 42.6699 14.9976 41.4121C14.4452 41.0566 13.7271 41.1387 13.2714 41.5898L11.5451 43.2988L7.29167 39.0879L9.01791 37.3789C9.47364 36.9277 9.5565 36.2168 9.19744 35.6699C7.94073 33.7285 7.04309 31.582 6.54593 29.3125C6.40783 28.6836 5.84162 28.2324 5.19255 28.2324H2.76199V22.2715H5.19255C5.84162 22.2715 6.40783 21.8203 6.54593 21.1914C7.04309 18.9219 7.94073 16.7891 9.21125 14.834C9.57031 14.2871 9.48745 13.5762 9.03172 13.125L7.31929 11.4297L11.5728 7.21875L13.2852 8.91406C13.7409 9.36523 14.459 9.44727 15.0114 9.0918C16.9863 7.83398 19.1406 6.94531 21.4331 6.45312C22.0683 6.31641 22.5241 5.75586 22.5241 5.11328V2.73438H28.5452V5.12695C28.5452 5.76953 29.0009 6.33008 29.6362 6.4668C31.9287 6.95898 34.083 7.83398 36.0578 9.10547C36.6102 9.46094 37.3284 9.37891 37.7841 8.92773L39.4965 7.23242L43.75 11.4434L42.0238 13.125C41.568 13.5762 41.4852 14.2871 41.8442 14.834C43.1147 16.7891 44.0124 18.9219 44.5095 21.1914C44.6476 21.8203 45.2139 22.2715 45.8629 22.2715H48.2935V28.2324H45.8629C45.2139 28.2324 44.6476 28.6836 44.5095 29.3125C44.0124 31.582 43.1147 33.7148 41.8442 35.6699C41.4852 36.2168 41.568 36.9277 42.0238 37.3789L43.75 39.0879L39.4965 43.2988ZM65.4869 51.5703C65.6802 52.377 65.7769 53.2109 65.7769 54.0586C65.7769 54.8926 65.6802 55.7266 65.4869 56.5469C65.3488 57.1348 65.6112 57.7363 66.136 58.0371L67.4341 58.7754L65.2383 62.5352L63.9402 61.7969C63.4154 61.4961 62.7525 61.5781 62.3106 61.9883C61.0815 63.1367 59.5762 63.998 57.9743 64.4766C57.3943 64.6543 56.9938 65.1875 56.9938 65.7891V67.2656H52.6022V65.7754C52.6022 65.1738 52.2017 64.6406 51.6217 64.4629C50.0197 63.9844 48.5144 63.123 47.2854 61.9746C46.8434 61.5645 46.1806 61.4824 45.6558 61.7832L44.3438 62.5352L42.148 58.7754L43.4462 58.0371C43.971 57.7363 44.2333 57.1348 44.0952 56.5469C43.9019 55.7402 43.8052 54.9062 43.8052 54.0586C43.8052 53.2246 43.9019 52.3906 44.0952 51.5703C44.2333 50.9824 43.971 50.3809 43.4462 50.0801L42.148 49.3281L44.3438 45.5684L45.6558 46.3203C46.1806 46.6211 46.8434 46.5391 47.2854 46.1289C48.5144 44.9805 50.0197 44.1191 51.6217 43.6406C52.2017 43.4629 52.6022 42.9297 52.6022 42.3281V40.8379H56.9938V42.3281C56.9938 42.9297 57.3943 43.4629 57.9743 43.6406C59.5762 44.1191 61.0815 44.9805 62.3106 46.1289C62.7525 46.5391 63.4154 46.6211 63.9402 46.3203L65.2521 45.5684L67.4479 49.3281L66.1498 50.0801C65.8904 50.2231 65.6853 50.4461 65.5657 50.7151C65.4461 50.984 65.4184 51.2843 65.4869 51.5703ZM57.7257 11.4844C58.4852 11.4844 59.1067 10.8691 59.1067 10.1172V1.36719C59.1067 0.615234 58.4852 0 57.7257 0C56.9661 0 56.3447 0.615234 56.3447 1.36719V10.1172C56.3447 10.8691 56.9661 11.4844 57.7257 11.4844ZM52.2017 11.4844C52.9613 11.4844 53.5827 10.8691 53.5827 10.1172V1.36719C53.5827 0.615234 52.9613 0 52.2017 0C51.4422 0 50.8207 0.615234 50.8207 1.36719V10.1172C50.8207 10.8691 51.4422 11.4844 52.2017 11.4844ZM66.2879 0C63.8573 0 61.8687 1.96875 61.8687 4.375V7.10938C61.8687 9.51562 63.8573 11.4844 66.2879 11.4844C68.7184 11.4844 70.7071 9.51562 70.7071 7.10938V4.375C70.7071 1.96875 68.7184 0 66.2879 0ZM67.9451 7.10938C67.9451 8.01172 67.1993 8.75 66.2879 8.75C65.3764 8.75 64.6307 8.01172 64.6307 7.10938V4.375C64.6307 3.47266 65.3764 2.73438 66.2879 2.73438C67.1993 2.73438 67.9451 3.47266 67.9451 4.375V7.10938ZM69.3261 14.2188C68.5665 14.2188 67.9451 14.834 67.9451 15.5859V24.3359C67.9451 25.0879 68.5665 25.7031 69.3261 25.7031C70.0856 25.7031 70.7071 25.0879 70.7071 24.3359V15.5859C70.7071 14.834 70.0856 14.2188 69.3261 14.2188ZM60.7639 25.7031C63.1944 25.7031 65.1831 23.7344 65.1831 21.3281V18.5938C65.1831 16.1875 63.1944 14.2188 60.7639 14.2188C58.3333 14.2188 56.3447 16.1875 56.3447 18.5938V21.3281C56.3447 23.7344 58.3333 25.7031 60.7639 25.7031ZM59.1067 18.5938C59.1067 17.6914 59.8524 16.9531 60.7639 16.9531C61.6753 16.9531 62.4211 17.6914 62.4211 18.5938V21.3281C62.4211 22.2305 61.6753 22.9688 60.7639 22.9688C59.8524 22.9688 59.1067 22.2305 59.1067 21.3281V18.5938ZM5.93829 58.5156C5.17874 58.5156 4.55729 59.1309 4.55729 59.8828V68.6328C4.55729 69.3848 5.17874 70 5.93829 70C6.69784 70 7.31929 69.3848 7.31929 68.6328V59.8828C7.31929 59.1309 6.69784 58.5156 5.93829 58.5156ZM14.5005 58.5156C12.0699 58.5156 10.0813 60.4844 10.0813 62.8906V65.625C10.0813 68.0312 12.0699 70 14.5005 70C16.931 70 18.9197 68.0312 18.9197 65.625V62.8906C18.9197 60.4844 16.931 58.5156 14.5005 58.5156ZM16.1577 65.625C16.1577 66.5273 15.4119 67.2656 14.5005 67.2656C13.589 67.2656 12.8433 66.5273 12.8433 65.625V62.8906C12.8433 61.9883 13.589 61.25 14.5005 61.25C15.4119 61.25 16.1577 61.9883 16.1577 62.8906V65.625ZM23.0627 58.5156C22.3031 58.5156 21.6817 59.1309 21.6817 59.8828V68.6328C21.6817 69.3848 22.3031 70 23.0627 70C23.8222 70 24.4437 69.3848 24.4437 68.6328V59.8828C24.4437 59.1309 23.8222 58.5156 23.0627 58.5156Z" fill="#FA4978"/>
<path d="M31.625 58.5156C29.1944 58.5156 27.2058 60.4844 27.2058 62.8906V65.625C27.2058 68.0312 29.1944 70 31.625 70C34.0556 70 36.0442 68.0312 36.0442 65.625V62.8906C36.0442 60.4844 34.0556 58.5156 31.625 58.5156ZM33.2822 65.625C33.2822 66.5273 32.5365 67.2656 31.625 67.2656C30.7135 67.2656 29.9678 66.5273 29.9678 65.625V62.8906C29.9678 61.9883 30.7135 61.25 31.625 61.25C32.5365 61.25 33.2822 61.9883 33.2822 62.8906V65.625ZM25.5348 16.543C25.1757 16.543 24.8167 16.3926 24.5543 16.1465C24.2919 15.8867 24.1538 15.5449 24.1538 15.1758C24.1538 14.8203 24.3057 14.4648 24.5543 14.2051C24.8167 13.9453 25.1619 13.8086 25.5348 13.8086C25.8939 13.8086 26.2529 13.959 26.5153 14.2051C26.7777 14.4648 26.9158 14.8066 26.9158 15.1758C26.9158 15.5312 26.7639 15.8867 26.5153 16.1465C26.2529 16.3926 25.8939 16.543 25.5348 16.543Z" fill="#FC5E3E"/>
</g>
<defs>
<clipPath id="clip0">
<rect width="70.7071" height="70" fill="white"/>
</clipPath>
</defs>
</svg>
