<svg width="70" height="70" viewBox="0 0 70 70" fill="none" xmlns="http://www.w3.org/2000/svg">
<path d="M31.3086 51.5977C31.6641 51.5977 32.0195 51.4473 32.2793 51.2012C32.5391 50.9414 32.6758 50.5996 32.6758 50.2305C32.6758 49.875 32.5254 49.5195 32.2793 49.2598C32.0195 49 31.6777 48.8633 31.3086 48.8633C30.9395 48.8633 30.5977 49.0137 30.3379 49.2598C30.0781 49.5195 29.9414 49.8613 29.9414 50.2305C29.9414 50.5859 30.0918 50.9414 30.3379 51.2012C30.584 51.4609 30.9531 51.5977 31.3086 51.5977ZM30.1055 40.8652C30.8574 40.8652 31.4727 40.25 31.4727 39.498C31.4727 38.7461 30.8574 38.1309 30.1055 38.1309H19.6328C18.8809 38.1309 18.2656 38.7461 18.2656 39.498C18.2656 40.25 18.8809 40.8652 19.6328 40.8652H30.1055ZM13.4668 40.8652C14.2188 40.8652 14.834 40.25 14.834 39.498C14.834 38.7461 14.2188 38.1309 13.4668 38.1309H8.75C7.99805 38.1309 7.38281 38.7461 7.38281 39.498C7.38281 40.25 7.99805 40.8652 8.75 40.8652H13.4668ZM55.5078 63.6016C55.1523 63.6016 54.7969 63.752 54.5371 63.998C54.2773 64.2441 54.1406 64.5996 54.1406 64.9688C54.1406 65.3242 54.291 65.6797 54.5371 65.9395C54.7969 66.1992 55.1387 66.3359 55.5078 66.3359C55.877 66.3359 56.2188 66.1855 56.4785 65.9395C56.7383 65.6797 56.875 65.3379 56.875 64.9688C56.875 64.6133 56.7246 64.2578 56.4785 63.998C56.2324 63.7383 55.8633 63.6016 55.5078 63.6016Z" fill="#FC5E3E"/>
<path d="M65.8711 24.7734H62.6172V15.0801C62.6172 11.3477 59.6914 8.29883 56.0273 8.08008L59.4453 4.66211V6.05664C59.4453 6.80859 60.0605 7.42383 60.8125 7.42383C61.5645 7.42383 62.1797 6.80859 62.1797 6.05664V1.36719C62.1797 0.615234 61.5645 0 60.8125 0H56.123C55.3711 0 54.7559 0.615234 54.7559 1.36719C54.7559 2.11914 55.3711 2.73438 56.123 2.73438H57.5176L52.1855 8.06641H37.4609C36.709 8.06641 36.0938 8.68164 36.0938 9.43359C36.0938 10.1855 36.709 10.8008 37.4609 10.8008H49.4375L34.2344 26.0039C33.5645 25.6348 32.8125 25.4434 32.0195 25.4434C31.3496 25.4434 30.707 25.5801 30.1191 25.8398L25.293 21.0137C26.0449 19.3047 25.7305 17.2402 24.3359 15.8457C22.5176 14.0273 19.5781 14.0273 17.7598 15.8457C16.2832 17.3223 16.0098 19.5508 16.9395 21.3008L12.9883 25.2383C11.2383 24.3086 8.99609 24.582 7.5332 26.0586C6.6582 26.9336 6.16602 28.1094 6.16602 29.3398C6.16602 30.584 6.64453 31.7461 7.5332 32.6211C8.42188 33.4961 9.58398 33.9883 10.8145 33.9883C12.0586 33.9883 13.2207 33.5098 14.0957 32.6211C14.9707 31.7324 15.4629 30.5703 15.4629 29.3398C15.4629 28.5742 15.2715 27.8223 14.9297 27.166L18.8672 23.2285C19.5508 23.584 20.3027 23.7754 21.0547 23.7754C21.9023 23.7754 22.75 23.543 23.502 23.0781L28.082 27.6582C27.6309 28.3828 27.3848 29.2168 27.3848 30.1055C27.3848 31.3496 27.8633 32.5117 28.752 33.3867C29.6543 34.2891 30.8438 34.7402 32.0332 34.7402C33.2227 34.7402 34.4121 34.2891 35.3145 33.3867C36.1895 32.5117 36.6816 31.3359 36.6816 30.1055C36.6816 29.3535 36.5039 28.6152 36.1621 27.959L53.3066 10.8008H55.6035C57.9688 10.8008 59.8965 12.7285 59.8965 15.0801V24.7734H45.1445C42.8613 24.7734 41.0156 26.6328 41.0156 28.9023V44.6797H2.73438V15.0938C2.73438 12.7285 4.66211 10.8008 7.02734 10.8008H25.1562C25.9082 10.8008 26.5234 10.1855 26.5234 9.43359C26.5234 8.68164 25.9082 8.06641 25.1562 8.06641H7.02734C3.14453 8.06641 0 11.2109 0 15.0938V48.7676C0 52.623 3.14453 55.7812 7.02734 55.7812H25.0195V61.8242C21.5742 62.0977 18.8672 64.9824 18.8672 68.4961V68.6328C18.8672 69.3848 19.4824 70 20.2344 70H42.3828C42.7656 70 43.1074 69.8496 43.3535 69.5898C43.9004 69.8496 44.502 70 45.1445 70H65.8711C68.1543 70 70 68.1406 70 65.8711V28.9023C70 26.6328 68.1406 24.7734 65.8711 24.7734ZM12.168 30.6934C11.8125 31.0488 11.3203 31.2539 10.8145 31.2539C10.3086 31.2539 9.81641 31.0488 9.46094 30.6934C9.10547 30.3379 8.90039 29.8457 8.90039 29.3398C8.90039 28.834 9.10547 28.3418 9.46094 27.9863C9.83008 27.6172 10.3223 27.4258 10.8145 27.4258C11.3066 27.4258 11.7988 27.6172 12.168 27.9863C12.5234 28.3418 12.7285 28.834 12.7285 29.3398C12.7285 29.8457 12.5371 30.3379 12.168 30.6934ZM19.7422 20.5215L19.6875 20.4668C19.6738 20.4531 19.6465 20.4395 19.6328 20.4258C18.9355 19.6738 18.9629 18.498 19.6875 17.7734C20.0566 17.4043 20.5488 17.2129 21.041 17.2129C21.5332 17.2129 22.0254 17.4043 22.3945 17.7734C23.0781 18.457 23.1328 19.5371 22.5723 20.2754C22.5312 20.3164 22.5039 20.3574 22.4629 20.3984C22.4355 20.4258 22.4219 20.4531 22.3945 20.4668C21.6699 21.2051 20.4941 21.2188 19.7422 20.5215ZM33.3867 31.4453C32.6348 32.1973 31.4316 32.1973 30.6797 31.4453C30.3242 31.0898 30.1191 30.5977 30.1191 30.0918C30.1191 29.5859 30.3242 29.0938 30.6797 28.7383C31.0352 28.3828 31.5273 28.1777 32.0332 28.1777C32.5391 28.1777 33.0312 28.3828 33.3867 28.7383C33.7422 29.0938 33.9473 29.5859 33.9473 30.0918C33.9473 30.6113 33.7422 31.0898 33.3867 31.4453ZM37.5977 55.7812H41.0156V63.0957C40.0449 62.3848 38.8691 61.9199 37.5977 61.8105V55.7812ZM43.75 33.0449H67.2656V59.8828H43.75V33.0449ZM45.1445 27.5078H65.8711C66.6367 27.5078 67.2656 28.1367 67.2656 28.9023V30.2969H43.75V28.9023C43.75 28.1367 44.3789 27.5078 45.1445 27.5078ZM2.73438 48.7539V47.4141H41.0156V53.0469H7.02734C4.66211 53.0469 2.73438 51.1191 2.73438 48.7539ZM34.8633 55.7812V61.7969H27.7539V55.7812H34.8633ZM21.793 67.2656C22.3125 65.6797 23.8027 64.5312 25.5664 64.5312H37.0508C38.8008 64.5312 40.3047 65.6797 40.8242 67.2656H21.793ZM65.8711 67.2656H45.1445C44.3789 67.2656 43.75 66.6367 43.75 65.8711V62.6172H67.2656V65.8711C67.2656 66.6367 66.6367 67.2656 65.8711 67.2656Z" fill="#FA4978"/>
<path d="M47.8516 47.8242H54.0586C54.8105 47.8242 55.4258 47.209 55.4258 46.457C55.4258 45.7051 54.8105 45.0898 54.0586 45.0898H47.8516C47.0996 45.0898 46.4844 45.7051 46.4844 46.457C46.4844 47.209 47.0996 47.8242 47.8516 47.8242ZM63.1641 45.0898H59.7734C59.0215 45.0898 58.4063 45.7051 58.4063 46.457C58.4063 47.209 59.0215 47.8242 59.7734 47.8242H63.1641C63.916 47.8242 64.5312 47.209 64.5312 46.457C64.5312 45.7051 63.916 45.0898 63.1641 45.0898ZM47.8516 41.2617H63.1641C63.916 41.2617 64.5312 40.6465 64.5312 39.8945C64.5312 39.1426 63.916 38.5273 63.1641 38.5273H47.8516C47.0996 38.5273 46.4844 39.1426 46.4844 39.8945C46.4844 40.6465 47.0996 41.2617 47.8516 41.2617ZM63.1641 51.6523H47.8516C47.0996 51.6523 46.4844 52.2676 46.4844 53.0195C46.4844 53.7715 47.0996 54.3867 47.8516 54.3867H63.1641C63.916 54.3867 64.5312 53.7715 64.5312 53.0195C64.5312 52.2676 63.916 51.6523 63.1641 51.6523ZM31.3086 10.8008C31.6641 10.8008 32.0195 10.6504 32.2793 10.4043C32.5391 10.1445 32.6758 9.80273 32.6758 9.43359C32.6758 9.07812 32.5254 8.72266 32.2793 8.46289C32.0332 8.20313 31.6641 8.06641 31.3086 8.06641C30.9531 8.06641 30.5977 8.2168 30.3379 8.46289C30.0781 8.70898 29.9414 9.06445 29.9414 9.43359C29.9414 9.78906 30.0918 10.1445 30.3379 10.4043C30.5977 10.6504 30.9531 10.8008 31.3086 10.8008Z" fill="#FC5E3E"/>
</svg>
