<svg width="70" height="70" viewBox="0 0 70 70" fill="none" xmlns="http://www.w3.org/2000/svg">
<g clip-path="url(#clip0)">
<path d="M67.9999 16.9589C67.9999 13.7946 65.4246 11.2192 62.2602 11.2192C60.63 11.2192 59.1643 11.9041 58.1232 12.9863L35.7122 0.0411326C35.2876 -0.205443 34.767 -0.205443 34.3424 0.0411326L11.9314 12.9863C10.8903 11.8904 9.41085 11.2192 7.79441 11.2192C4.63003 11.2192 2.05469 13.7946 2.05469 16.9589C2.05469 19.6576 3.9177 21.9178 6.42455 22.5343V48.3973C6.42455 48.8904 6.68482 49.3425 7.10948 49.5754L29.5067 62.5069C29.3561 63.0137 29.2739 63.548 29.2739 64.1096C29.2739 67.274 31.8492 69.8493 35.0136 69.8493C38.178 69.8493 40.7533 67.274 40.7533 64.1096C40.7533 63.548 40.6711 63.0137 40.5204 62.5069L62.9451 49.5891C63.3698 49.3425 63.63 48.8904 63.63 48.411V22.5343C66.1369 21.9178 67.9999 19.6576 67.9999 16.9589ZM4.78072 16.9589C4.78072 15.3014 6.12318 13.9452 7.79441 13.9452C9.45195 13.9452 10.8081 15.2877 10.8081 16.9589C10.8081 18.6165 9.46565 19.9726 7.79441 19.9726C6.13688 19.9589 4.78072 18.6165 4.78072 16.9589ZM35.0273 67.1233C33.3698 67.1233 32.0136 65.7808 32.0136 64.1096C32.0136 62.4521 33.3561 61.0959 35.0273 61.0959C36.6848 61.0959 38.041 62.4521 38.041 64.1096C38.0273 65.7808 36.6848 67.1233 35.0273 67.1233ZM39.1643 60.1507C38.1232 59.0548 36.6437 58.3836 35.0273 58.3836C33.3972 58.3836 31.9314 59.0685 30.8903 60.1507L9.16428 47.6028V22.5343C11.6711 21.9178 13.5341 19.6576 13.5341 16.9589C13.5341 16.3973 13.4519 15.863 13.3013 15.3562L35.0273 2.82195L56.7533 15.3562C56.6026 15.863 56.5204 16.411 56.5204 16.9589C56.5204 19.6576 58.3835 21.9178 60.8903 22.5343V47.6165L39.1643 60.1507ZM62.2602 19.9589C60.6026 19.9589 59.2465 18.6028 59.2465 16.9452C59.2465 15.2877 60.6026 13.9315 62.2602 13.9315C63.9177 13.9315 65.2739 15.274 65.2739 16.9452C65.2602 18.6165 63.9177 19.9589 62.2602 19.9589Z" fill="#FA4978"/>
<path d="M53.7537 21.0685L35.7126 10.6576C35.2879 10.411 34.7674 10.411 34.3427 10.6576L16.3016 21.0685C15.877 21.3151 15.6167 21.7672 15.6167 22.2466V43.0822C15.6167 43.5754 15.877 44.0275 16.3016 44.2603L34.3427 54.685C34.5482 54.8083 34.7948 54.8631 35.0277 54.8631C35.2605 54.8631 35.4934 54.8083 35.7126 54.685L53.7537 44.2603C54.1783 44.0138 54.4386 43.5617 54.4386 43.0822V22.2603C54.4386 21.7672 54.1783 21.3151 53.7537 21.0685ZM35.0277 13.411L50.3427 22.2466L35.0277 31.0959L19.7126 22.2603L35.0277 13.411ZM36.3975 51.1507V44.9864C36.3975 44.2329 35.7811 43.6165 35.0277 43.6165C34.2742 43.6165 33.6578 44.2329 33.6578 44.9864V51.1507L18.3427 42.3151V24.6302L34.3427 33.8631C34.5482 33.9864 34.7948 34.0412 35.0277 34.0412C35.2605 34.0412 35.4934 33.9864 35.7126 33.8631L51.7126 24.6302V42.3151L36.3975 51.1507Z" fill="#FC5E3E"/>
<path d="M35.0271 37.4657C34.6709 37.4657 34.3148 37.6164 34.0545 37.863C33.7942 38.1232 33.6572 38.4657 33.6572 38.8356C33.6572 39.1917 33.8079 39.5479 34.0545 39.8082C34.3148 40.0684 34.6572 40.2054 35.0271 40.2054C35.3833 40.2054 35.7394 40.0547 35.9997 39.8082C36.26 39.5479 36.397 39.2054 36.397 38.8356C36.397 38.4794 36.2463 38.1232 35.9997 37.863C35.7394 37.6027 35.3833 37.4657 35.0271 37.4657Z" fill="#FC5E3E"/>
</g>
<defs>
<clipPath id="clip0">
<rect width="70" height="70" fill="white"/>
</clipPath>
</defs>
</svg>
